<?xml version="1.0" encoding="UTF-8"?>
<svg id="Layer_2" data-name="Layer 2" xmlns="http://www.w3.org/2000/svg" viewBox="0 0 212.56 240.54">
  <defs>
    <style>
      .cls-1 {
        fill: #231f20;
      }
    </style>
  </defs>
  <g id="Layer_1-2" data-name="Layer 1">
    <g>
      <path class="cls-1" d="m133.12,21.63l-30.07,74.08h11.27c7.68,0,11.53,2.73,11.53,8.18,0,3.67-1.35,6.56-4.05,8.64-2.7,2.09-6.47,3.13-11.32,3.13h-15.62l-6.1,15.37c-6.79,16.98-13.86,28.97-21.21,35.95-7.35,6.99-16.51,10.48-27.48,10.48-10.36,0-18.99-3.45-25.89-10.36s-10.36-15.51-10.36-25.81c0-7.8,2.05-14.95,6.14-21.46,4.09-6.51,9.87-11.86,17.33-16.04,9.52-5.29,22.69-7.93,39.5-7.93l13.28-.17,2.84-6.93c-2.95,1.45-6.21,2.17-9.77,2.17-7.91,0-14.46-2.42-19.67-7.27-5.21-4.84-7.81-10.94-7.81-18.29,0-3.84,1.28-9.41,3.84-16.7l1.84-4.93,1.75-4.93c1.28-3.51,1.92-6.43,1.92-8.77,0-2.67-1.17-4.95-3.51-6.85-2.34-1.89-5.15-2.84-8.43-2.84-5.35,0-10.23,2.45-14.66,7.35-4.43,4.9-6.64,10.27-6.64,16.12,0,3.34.75,5.97,2.25,7.89,1.5,1.92,4.18,3.61,8.02,5.05,4.01,1.56,6.01,4.12,6.01,7.68,0,3.17-1.2,5.82-3.59,7.93-2.39,2.12-5.37,3.17-8.94,3.17-7.07,0-13.1-2.95-18.08-8.85C2.49,60.83,0,53.7,0,45.35c0-12.14,4.58-22.73,13.74-31.78C22.9,4.52,33.6,0,45.85,0c9.19,0,16.79,2.76,22.8,8.27,6.01,5.51,9.02,12.47,9.02,20.88,0,4.01-.7,7.91-2.09,11.69l-3.26,8.85c-2.06,5.51-3.09,9.44-3.09,11.78,0,2.62.97,4.84,2.92,6.68,1.95,1.84,4.29,2.76,7.02,2.76,4.06,0,7.49-1.42,10.27-4.26,2.78-2.84,5.62-7.79,8.52-14.87l16.12-39.75c1.56-3.84,3.47-6.53,5.72-8.06,2.25-1.53,5.47-2.3,9.65-2.3h19.71c7.68,0,11.53,2.62,11.53,7.85,0,3.84-1.35,6.82-4.05,8.94-2.7,2.12-6.5,3.17-11.4,3.17h-12.11Zm-61.13,94.04c-11.69,0-20.66,1.11-26.89,3.34-5.85,2.06-10.43,5.02-13.74,8.89-3.31,3.87-4.97,8.14-4.97,12.82,0,4.34,1.43,8.02,4.3,11.02,2.87,3.01,6.36,4.51,10.48,4.51,5.07,0,9.65-2.25,13.74-6.76,4.09-4.51,8.17-11.8,12.24-21.88l4.84-11.94Z"/>
      <path class="cls-1" d="m164.12,115.43l-25.05,61.55h57.88c7.74,0,11.61,2.67,11.61,8.02,0,3.79-1.37,6.72-4.09,8.81-2.73,2.09-6.51,3.13-11.36,3.13h-62.14l-1,2.34c-3.9,8.69-6.96,14.78-9.19,18.29-2.23,3.51-5.12,6.9-8.69,10.19-9.3,8.52-19.99,12.78-32.07,12.78-9.8,0-17.88-2.92-24.26-8.77-6.38-5.85-9.56-13.28-9.56-22.3,0-5.62,1.36-10.89,4.09-15.78,2.73-4.9,6.43-8.71,11.11-11.44,6.07-3.51,14.31-5.26,24.72-5.26h29.48l24.97-61.55h-12.28c-6.24,0-9.35-2.76-9.35-8.27,0-3.62,1.36-6.47,4.09-8.56,2.73-2.09,6.51-3.13,11.36-3.13h14.28l3.84-9.44c7.29-18.04,18.43-27.06,33.41-27.06,7.63,0,13.97,2.41,19.04,7.22,5.07,4.82,7.6,10.84,7.6,18.08,0,9.24-3.67,16.74-11.02,22.51-7.35,5.76-16.9,8.64-28.65,8.64h-8.77Zm-56.71,81.51h-21.96c-10.91,0-16.37,3.87-16.37,11.61,0,3.17,1.2,5.83,3.59,7.98,2.39,2.14,5.4,3.21,9.02,3.21,4.96,0,9.73-2.05,14.32-6.14,4.59-4.09,8.39-9.65,11.4-16.66Zm64.81-101.47h3.84c4.18,0,7.75-1.04,10.73-3.13,2.98-2.09,4.47-4.63,4.47-7.64,0-4.45-2.09-6.68-6.26-6.68-3.79,0-7.27,3.9-10.44,11.69l-2.34,5.76Z"/>
      <path class="cls-1" d="m110.58,95.71s17.58-.24,24.76-.24,3.82,19.96,3.82,19.96c0,0-8.62,0-17.47.1-8.25.09-16.86.22-17.99-.1-2.95-.84,6.88-19.72,6.88-19.72Z"/>
    </g>
  </g>
</svg>