<svg width="78" height="80" viewBox="0 0 78 80" fill="none" xmlns="http://www.w3.org/2000/svg">
<path d="M48.6424 7.20592L37.6601 31.8397H41.7775C44.5834 31.8397 45.99 32.7475 45.99 34.5598C45.99 35.7802 45.4968 36.7412 44.5104 37.4329C43.5239 38.1279 42.1466 38.4737 40.3746 38.4737H34.6679L32.4393 43.5847C29.9585 49.231 27.3755 53.218 24.6902 55.5391C22.0049 57.8635 18.6583 59.024 14.6505 59.024C10.8655 59.024 7.7125 57.8768 5.1916 55.579C2.6707 53.2846 1.40659 50.4215 1.40659 46.9964C1.40659 44.4027 2.15556 42.0251 3.64983 39.8603C5.14411 37.6956 7.25581 35.9165 9.98131 34.5266C13.4594 32.7675 18.2711 31.8896 24.4126 31.8896L29.2644 31.8331L30.302 29.5286C29.2242 30.0108 28.0332 30.2502 26.7325 30.2502C23.8426 30.2502 21.4496 29.4455 19.5461 27.8327C17.6427 26.2233 16.6928 24.1949 16.6928 21.7508C16.6928 20.4739 17.1604 18.6217 18.0957 16.1975L18.7679 14.5581L19.4073 12.9188C19.8749 11.7516 20.1088 10.7806 20.1088 10.0025C20.1088 9.11464 19.6813 8.35647 18.8264 7.72466C17.9715 7.09618 16.9448 6.78028 15.7465 6.78028C13.7919 6.78028 12.009 7.59498 10.3905 9.22437C8.77201 10.8538 7.96459 12.6395 7.96459 14.5848C7.96459 15.6954 8.2386 16.57 8.78663 17.2084C9.33465 17.8469 10.3138 18.4088 11.7167 18.8877C13.1818 19.4064 13.9125 20.2577 13.9125 21.4415C13.9125 22.4956 13.474 23.3768 12.6009 24.0785C11.7277 24.7834 10.6389 25.1326 9.33465 25.1326C6.75164 25.1326 4.54858 24.1516 2.72915 22.1897C0.909717 20.2278 0 17.8568 0 15.0802C0 11.0433 1.6733 7.52182 5.01989 4.51243C8.36648 1.50304 12.2757 0 16.7512 0C20.1088 0 22.8854 0.917783 25.0811 2.75002C27.2769 4.58226 28.3766 6.89666 28.3766 9.69324C28.3766 11.0267 28.1208 12.3235 27.613 13.5805L26.422 16.5234C25.6694 18.3556 25.293 19.6625 25.293 20.4406C25.293 21.3118 25.6474 22.05 26.3599 22.6619C27.0723 23.2737 27.9272 23.5797 28.9246 23.5797C30.4079 23.5797 31.6611 23.1075 32.6767 22.1631C33.6924 21.2187 34.73 19.5727 35.7895 17.2184L41.6789 4.00033C42.2489 2.72342 42.9467 1.82891 43.7687 1.32014C44.5907 0.811373 45.7671 0.555324 47.2943 0.555324H54.4953C57.3012 0.555324 58.7078 1.42655 58.7078 3.16568C58.7078 4.4426 58.2146 5.43354 57.2281 6.1385C56.2417 6.84346 54.8534 7.19262 53.0632 7.19262H48.6424V7.20592ZM26.3087 38.477C22.0378 38.477 18.7606 38.8461 16.4845 39.5877C14.3472 40.2727 12.6739 41.257 11.4646 42.5438C10.2553 43.8307 9.64884 45.2506 9.64884 46.8069C9.64884 48.2501 10.1713 49.4738 11.2198 50.4714C12.2684 51.4723 13.5435 51.9711 15.0487 51.9711C16.901 51.9711 18.5743 51.2229 20.0686 49.7232C21.5628 48.2235 23.0535 45.7993 24.5404 42.4474L26.3087 38.477Z" fill="white"/>
<path d="M59.9645 38.3972L50.8126 58.8644H71.9589C74.7867 58.8644 76.2006 59.7523 76.2006 61.5313C76.2006 62.7916 75.7 63.7659 74.7063 64.4609C73.7089 65.1559 72.3279 65.5017 70.556 65.5017H47.8532L47.4879 66.2798C46.063 69.1695 44.9451 71.1946 44.1303 72.3618C43.3156 73.529 42.2598 74.6562 40.9555 75.7503C37.5577 78.5834 33.6522 80 29.2388 80C25.6583 80 22.7063 79.029 20.3754 77.0837C18.0445 75.1384 16.8827 72.6677 16.8827 69.6683C16.8827 67.7995 17.3796 66.0471 18.377 64.421C19.3744 62.7916 20.7261 61.5247 22.436 60.6168C24.6536 59.4497 27.6641 58.8677 31.4674 58.8677H42.2378L51.3606 38.4005H47.6998H46.8778C44.598 38.4005 43.4618 37.4828 43.4618 35.6505C43.4618 34.4468 43.9586 33.499 44.956 32.8041C45.9534 32.1091 47.3344 31.7632 49.1064 31.7632H54.3235L55.7265 28.6242C58.3899 22.6253 62.4598 19.6259 67.9328 19.6259C70.7204 19.6259 73.0367 20.4273 74.889 22.0268C76.7413 23.6296 77.6656 25.6314 77.6656 28.0389C77.6656 31.1115 76.3248 33.6055 73.6395 35.5242C70.9542 37.4395 67.4651 38.3972 63.1723 38.3972H59.9645ZM39.2493 65.5017H31.2226C27.2367 65.5017 25.2418 66.7886 25.2418 69.3624C25.2418 70.4165 25.6803 71.301 26.5535 72.016C27.4266 72.7276 28.5263 73.0834 29.8489 73.0834C31.661 73.0834 33.4037 72.4017 35.0807 71.0417C36.7613 69.6816 38.1496 67.8361 39.2493 65.5017ZM62.9275 31.7599H64.3304C65.8576 31.7599 67.1619 31.4141 68.2506 30.7191C69.3393 30.0241 69.8837 29.1795 69.8837 28.1786C69.8837 26.6988 69.1201 25.9573 67.5966 25.9573C66.212 25.9573 64.9406 27.2541 63.7824 29.8445L62.9275 31.7599Z" fill="white"/>
<path d="M40.4075 31.8397C40.4075 31.8397 46.8303 31.7599 49.4535 31.7599C52.0767 31.7599 50.8491 38.3972 50.8491 38.3972C50.8491 38.3972 47.6998 38.3972 44.4665 38.4304C41.4524 38.4604 38.3067 38.5036 37.8939 38.3972C36.8161 38.1179 40.4075 31.8397 40.4075 31.8397Z" fill="white"/>
</svg>
