<?xml version="1.0" encoding="UTF-8"?>
<svg id="Layer_2" data-name="Layer 2" xmlns="http://www.w3.org/2000/svg" viewBox="0 0 528 528">
  <defs>
    <style>
      .cls-1 {
        fill: #b1c8d0;
      }

      .cls-2 {
        fill: #1c1d1c;
      }

      .cls-3 {
        fill: #f9f8dc;
      }

      .cls-4 {
        fill: #fff;
      }

      .cls-5 {
        fill: #f8f6d0;
      }

      .cls-6 {
        fill: #773d66;
      }

      .cls-7 {
        fill: #635978;
      }
    </style>
  </defs>
  <g id="Capa_2" data-name="Capa 2">
    <path class="cls-4" d="m264,528c145.8,0,264-118.2,264-264S409.81,0,264,0,0,118.2,0,264c0,145.8,118.2,264,264,264Zm58.45-155.83v76.09c0,5.36-4.36,9.71-9.71,9.71h-8.93c-2.71,15.55-16.3,27.42-32.62,27.42s-29.9-11.86-32.62-27.42h-8.93c-5.36,0-9.72-4.36-9.72-9.71v-76.09c-45.24-20.23-74.34-64.97-74.34-114.7,0-69.26,56.35-125.6,125.6-125.6s125.61,56.35,125.61,125.6c0,49.73-29.09,94.47-74.34,114.7Zm145.68-122.1c6.41,0,11.61,5.21,11.61,11.61s-5.21,11.61-11.61,11.61h-50.12c-6.4,0-11.61-5.21-11.61-11.61s5.21-11.61,11.61-11.61h50.12Zm-78.71-77.2l31.62-19.35c4.51-2.76,10.42-1.34,13.18,3.17h0c2.76,4.51,1.33,10.42-3.17,13.18l-31.61,19.35c-1.56.95-3.28,1.41-4.99,1.41-3.23,0-6.38-1.63-8.19-4.58-2.76-4.51-1.34-10.42,3.16-13.18Zm-63.93-53.61l21.64-30.09c1.49-2.07,3.7-3.44,6.24-3.86,2.53-.41,5.07.18,7.14,1.67,4.29,3.09,5.27,9.09,2.18,13.38l-21.64,30.09c-1.87,2.6-4.82,3.98-7.79,3.98-1.94,0-3.9-.59-5.58-1.8-4.3-3.08-5.28-9.08-2.19-13.37Zm-65.92-64.6c0-6.4,5.21-11.61,11.61-11.61s11.61,5.21,11.61,11.61v50.12c0,6.4-5.21,11.61-11.61,11.61s-11.61-5.21-11.61-11.61v-50.12Zm-86.33,32.32c4.29-3.09,10.29-2.11,13.38,2.18l21.64,30.09c3.08,4.29,2.11,10.29-2.18,13.38-1.69,1.21-3.64,1.8-5.58,1.8-2.99,0-5.93-1.38-7.8-3.98l-21.64-30.09c-3.09-4.29-2.11-10.29,2.18-13.38Zm-68.28,68.12c2.76-4.51,8.67-5.93,13.18-3.17l31.62,19.35c2.17,1.33,3.7,3.44,4.31,5.93.6,2.49.2,5.07-1.14,7.25-1.33,2.18-3.44,3.71-5.93,4.31-.76.18-1.52.27-2.27.27-1.74,0-3.46-.48-4.98-1.41l-31.61-19.35c-2.18-1.33-3.71-3.44-4.31-5.93-.61-2.5-.2-5.08,1.13-7.25Zm-45.37,106.58c0-6.4,5.21-11.61,11.61-11.61h50.11c6.41,0,11.61,5.21,11.61,11.61s-5.21,11.61-11.61,11.61h-50.11c-6.41,0-11.61-5.21-11.61-11.61Z"/>
    <path class="cls-4" d="m318.83,341.9c-10.34,6.84-21.94,11.82-34.36,14.47,12.42-2.66,24.03-7.64,34.36-14.47Z"/>
    <path class="cls-4" d="m162.53,211.61c2.99-7.05,6.64-13.76,10.88-20.03-4.24,6.27-7.89,12.98-10.88,20.03Z"/>
    <path class="cls-4" d="m305.3,231.46c-3.57-3.35-7.64-6.19-12.08-8.38,4.44,2.19,8.5,5.03,12.08,8.38Z"/>
    <path class="cls-4" d="m314.42,242.96c-2.47-4.27-5.55-8.14-9.12-11.5,3.57,3.36,6.65,7.23,9.12,11.5Z"/>
    <path class="cls-4" d="m326.35,336.42c4.84-3.87,9.34-8.18,13.43-12.87-4.1,4.7-8.6,9-13.43,12.87Z"/>
    <path class="cls-4" d="m187.83,174.12c8.01-8.01,17.16-14.88,27.19-20.33-10.03,5.45-19.18,12.32-27.19,20.33Z"/>
    <path class="cls-4" d="m350.81,308.41c-3.24,5.39-6.93,10.46-11.03,15.14,4.1-4.68,7.79-9.75,11.03-15.14Z"/>
    <path class="cls-4" d="m289.23,457.98h-42.84c.14.6.28,1.21.46,1.8,5.27,5.09,12.42,8.23,20.32,8.23,8.81,0,16.69-3.9,22.06-10.03Z"/>
    <path class="cls-7" d="m267.18,468c-7.9,0-15.06-3.14-20.32-8.23,3.21,10.39,12.9,17.95,24.32,17.95,12.07,0,22.19-8.45,24.79-19.75h-6.74c-5.37,6.14-13.25,10.03-22.05,10.03Z"/>
    <path class="cls-3" d="m271.18,139.54c-20.32,0-39.46,5.17-56.17,14.26-10.03,5.45-19.18,12.32-27.19,20.33-5.34,5.34-10.17,11.18-14.41,17.46s-7.9,12.98-10.88,20.03c-5.98,14.1-9.29,29.6-9.29,45.86,0,47.49,28.27,90.14,72,108.65,1.42.6,2.34,1.99,2.34,3.53v23.78c1.09-.36,2.26-.56,3.47-.56h36.29v-34.41c-1.21.04-2.42.09-3.65.09-56.49,0-102.45-47.44-102.45-105.76s45.96-105.76,102.45-105.76,102.45,47.44,102.45,105.76c0,20.39-5.62,39.44-15.34,55.61-3.24,5.39-6.93,10.46-11.03,15.14-4.1,4.69-8.6,9-13.43,12.87-2.42,1.94-4.93,3.76-7.51,5.47-10.34,6.84-21.94,11.82-34.36,14.47-3.1.66-6.26,1.18-9.46,1.54v34.98h36.29c1.21,0,2.38.2,3.47.56v-23.78c0-1.54.92-2.93,2.34-3.53,43.74-18.52,72-61.16,72-108.65.01-65.04-52.89-117.94-117.93-117.94Z"/>
    <path class="cls-5" d="m184.38,240.31c0-39.2,30.75-70.98,68.68-70.98s68.68,31.78,68.68,70.98c0,1.81-.09,3.6-.22,5.38.96,2.18,1.79,4.43,2.47,6.75.68,2.31,1.21,4.69,1.58,7.12h5.57v15.06h-15.48v-5.12c-7.81,17.85-22.53,31.75-40.65,38.07v42.61c2.94-.36,5.83-.87,8.67-1.5,19.93-4.45,37.54-15.39,50.66-30.57,7.5-8.67,13.53-18.73,17.69-29.76,2.08-5.51,3.69-11.26,4.78-17.21,1.09-5.94,1.67-12.07,1.67-18.34,0-54.08-42.52-98.09-94.79-98.09s-94.78,44-94.78,98.09,42.52,98.09,94.78,98.09c1.23,0,2.44-.05,3.65-.1v-41.06c-4.61,1.01-9.39,1.55-14.29,1.55-37.92.02-68.67-31.76-68.67-70.97Z"/>
    <path class="cls-5" d="m319.85,256.84c-.21.91-.44,1.82-.69,2.72h1.22c-.15-.92-.33-1.82-.53-2.72Z"/>
    <path class="cls-3" d="m247.93,267.84c0-12.82,10.43-23.26,23.25-23.26s23.26,10.43,23.26,23.26c0,11.52-8.42,21.08-19.43,22.92v16.81c18.12-6.32,32.84-20.22,40.65-38.07v-9.95h3.5c.24-.9.47-1.8.69-2.72-1.12-4.94-2.97-9.61-5.44-13.88s-5.55-8.14-9.12-11.5c-3.57-3.35-7.64-6.19-12.08-8.38-4.43-2.19-9.24-3.75-14.3-4.54v4.54h-15.48v-4.54c-21.15,3.31-37.93,19.94-41.47,41.01h4.37v15.06h-15.48v-15.04h5.92c3.63-23.89,22.68-42.78,46.65-46.17v-5.37h15.48v5.37c14.32,2.03,26.88,9.58,35.45,20.44,2.85,3.62,5.27,7.6,7.15,11.87.13-1.78.22-3.57.22-5.38,0-39.2-30.75-70.98-68.68-70.98s-68.68,31.78-68.68,70.98,30.75,70.99,68.68,70.99c4.9,0,9.68-.54,14.29-1.55v-19c-10.98-1.84-19.4-11.4-19.4-22.92Z"/>
    <path class="cls-4" d="m311.31,400.55h-80.25c-1.91,0-3.47,1.56-3.47,3.47v17.84c0,.55.23,1.06.6,1.44.38.37.89.61,1.44.61h83.1c.56,0,1.07-.23,1.44-.61.38-.37.61-.89.61-1.44v-17.84c0-1.91-1.56-3.47-3.47-3.47Z"/>
    <path class="cls-7" d="m229.64,431.57c-.7,0-1.39-.07-2.05-.22v15.48c0,1.91,1.56,3.47,3.47,3.47h80.25c1.91,0,3.47-1.56,3.47-3.47v-15.47c-.66.14-1.35.22-2.05.22h-83.09Z"/>
    <path class="cls-6" d="m311.31,450.31h1.42c1.11,0,2.05-.94,2.05-2.05v-1.42c0,1.91-1.56,3.47-3.47,3.47Z"/>
    <path class="cls-6" d="m227.59,446.84v1.42c0,1.11.94,2.05,2.05,2.05h1.42c-1.91,0-3.47-1.56-3.47-3.47Z"/>
    <path class="cls-6" d="m271.18,131.87c-69.26,0-125.6,56.35-125.6,125.6,0,49.72,29.09,94.47,74.34,114.7v76.09c0,5.36,4.36,9.71,9.72,9.71h8.93c2.71,15.55,16.3,27.42,32.62,27.42s29.91-11.86,32.62-27.42h8.93c5.35,0,9.71-4.36,9.71-9.71v-76.09c45.25-20.23,74.34-64.97,74.34-114.7,0-69.25-56.35-125.6-125.61-125.6Zm0,345.85c-11.42,0-21.11-7.57-24.32-17.95-.19-.59-.33-1.19-.46-1.8h49.58c-2.61,11.3-12.73,19.75-24.8,19.75Zm43.6-30.88v1.42c0,1.11-.94,2.05-2.05,2.05h-83.09c-1.11,0-2.05-.94-2.05-2.05v-16.9c.66.14,1.35.22,2.05.22h83.1c.7,0,1.39-.07,2.05-.22v15.48h0Zm0-36.86v11.88c0,.55-.23,1.06-.61,1.44s-.88.61-1.44.61h-83.1c-.56,0-1.07-.23-1.44-.61-.37-.37-.6-.89-.6-1.44v-17.84c0-1.91,1.56-3.47,3.47-3.47h80.25c1.91,0,3.47,1.56,3.47,3.47v5.96h0Zm2.34-43.85c-1.42.6-2.34,1.99-2.34,3.53v23.78c-1.09-.36-2.26-.56-3.47-.56h-80.25c-1.21,0-2.38.2-3.47.56v-23.78c0-1.54-.92-2.93-2.34-3.53-43.74-18.52-72-61.16-72-108.65,0-16.26,3.31-31.76,9.29-45.86,2.99-7.05,6.64-13.76,10.88-20.03,4.24-6.28,9.07-12.12,14.41-17.46,8.01-8.01,17.16-14.88,27.19-20.33,16.71-9.09,35.84-14.26,56.17-14.26,65.03,0,117.94,52.91,117.94,117.94-.01,47.48-28.27,90.13-72.01,108.65Z"/>
    <path class="cls-2" d="m286.77,267.84c0-8.6-6.99-15.59-15.59-15.59s-15.59,6.99-15.59,15.59,6.99,15.59,15.59,15.59,15.59-6.99,15.59-15.59Z"/>
    <path class="cls-6" d="m284.47,356.36c12.42-2.65,24.02-7.63,34.36-14.47,2.58-1.71,5.09-3.54,7.51-5.47,4.84-3.87,9.34-8.18,13.43-12.87,4.1-4.69,7.79-9.75,11.03-15.14,9.72-16.16,15.34-35.22,15.34-55.61,0-58.31-45.96-105.76-102.45-105.76s-102.45,47.44-102.45,105.76,45.96,105.76,102.45,105.76c1.23,0,2.44-.05,3.65-.09v34.41h7.67v-34.98c3.2-.36,6.36-.87,9.46-1.54Zm-17.12-46.61v41.06c-1.21.05-2.42.1-3.65.1-52.27,0-94.78-44.01-94.78-98.09s42.52-98.09,94.78-98.09,94.79,44,94.79,98.09c0,6.27-.57,12.4-1.67,18.34-1.09,5.94-2.7,11.7-4.78,17.21-4.16,11.03-10.19,21.08-17.69,29.76-13.12,15.18-30.74,26.12-50.66,30.57-2.84.63-5.74,1.14-8.67,1.5v-59.44c11-1.84,19.43-11.4,19.43-22.92,0-12.82-10.44-23.26-23.26-23.26s-23.25,10.43-23.25,23.26c0,11.52,8.42,21.08,19.42,22.92v18.99h-.01Zm3.83-26.32c-8.6,0-15.59-6.99-15.59-15.59s6.99-15.59,15.59-15.59,15.59,6.99,15.59,15.59-6.99,15.59-15.59,15.59Z"/>
    <polygon class="cls-4" points="214.03 271.55 223.19 271.55 223.19 262.63 218.61 267.09 214.03 271.55"/>
    <polygon class="cls-1" points="214.03 271.55 218.61 267.09 223.19 262.63 214.03 262.63 214.03 271.55"/>
    <polygon class="cls-4" points="327.98 262.63 323.4 267.09 318.82 271.55 327.98 271.55 327.98 262.63"/>
    <polygon class="cls-1" points="327.98 262.63 318.82 262.63 318.82 271.55 323.4 267.09 327.98 262.63"/>
    <path class="cls-6" d="m331.14,274.62v-15.06h-5.57c-.36-2.43-.9-4.81-1.58-7.12-.68-2.31-1.5-4.57-2.47-6.75-1.88-4.27-4.3-8.25-7.15-11.87-8.57-10.85-21.13-18.41-35.45-20.44v-5.37h-15.48v5.37c-23.97,3.39-43.03,22.28-46.65,46.17h-5.92v15.06h15.48v-15.05h-4.37c3.54-21.07,20.32-37.71,41.47-41.01v4.54h15.48v-4.54c5.06.79,9.87,2.34,14.3,4.54,4.44,2.19,8.5,5.03,12.08,8.38,3.57,3.36,6.65,7.23,9.12,11.5,2.46,4.27,4.31,8.94,5.44,13.88.2.9.38,1.8.53,2.72h-4.72v15.07h15.46v-.02Zm-107.95-11.99v8.92h-9.16v-8.92h9.16Zm52.57-42.63h-9.16v-8.91h9.16v8.91Zm43.06,42.63h9.16v8.92h-9.16v-8.92Z"/>
    <polygon class="cls-4" points="266.6 220.01 275.76 220.01 275.76 220 275.76 211.09 271.18 215.55 266.6 220.01"/>
    <polygon class="cls-1" points="266.6 220 266.6 220.01 271.18 215.55 275.76 211.09 266.6 211.09 266.6 220"/>
    <path class="cls-3" d="m271.18,108.72c2.17,0,3.94-1.77,3.94-3.94v-50.12c0-2.17-1.77-3.94-3.94-3.94s-3.94,1.77-3.94,3.94v50.12c0,2.17,1.77,3.94,3.94,3.94Z"/>
    <path class="cls-3" d="m334.82,125.98l21.64-30.09c.61-.84.41-2.07-.44-2.68l-1.11-.35c-.6,0-1.2.27-1.57.79l-21.65,30.09c-.6.84-.4,2.07.44,2.68.86.6,2.08.4,2.69-.44Z"/>
    <path class="cls-3" d="m198.93,125.98c.6.84,1.84,1.04,2.67.44.84-.61,1.05-1.84.44-2.68l-21.65-30.09c-.61-.85-1.84-1.05-2.67-.44-.84.61-1.05,1.84-.44,2.68l21.65,30.09Z"/>
    <path class="cls-3" d="m112.13,161.74l31.62,19.35c.58.36,1.16.29,1.45.22.29-.07.83-.27,1.19-.86.36-.58.29-1.16.22-1.45-.07-.29-.27-.83-.86-1.19l-31.61-19.35-.98-.28-.47.05c-.29.07-.83.28-1.19.86h0c-.35.58-.29,1.16-.22,1.45.07.3.27.84.85,1.2Z"/>
    <path class="cls-3" d="m395.43,182.68l31.62-19.35c.89-.54,1.18-1.75.64-2.64-.36-.58-1-.91-1.66-.91l-.98.27-31.62,19.35c-.58.36-.79.9-.86,1.19s-.14.87.22,1.45c.55.89,1.75,1.18,2.64.64Z"/>
    <path class="cls-3" d="m125.26,261.68c0-2.18-1.77-3.94-3.95-3.94h-50.11c-2.18,0-3.94,1.77-3.94,3.94s1.76,3.94,3.94,3.94h50.11c2.18,0,3.95-1.77,3.95-3.94Z"/>
    <path class="cls-3" d="m414.07,261.68c0,2.17,1.77,3.94,3.94,3.94h50.12c2.17,0,3.94-1.77,3.94-3.94s-1.77-3.94-3.94-3.94h-50.12c-2.17,0-3.94,1.76-3.94,3.94Z"/>
    <path class="cls-6" d="m271.18,116.39c6.4,0,11.61-5.21,11.61-11.61v-50.12c0-6.4-5.21-11.61-11.61-11.61s-11.61,5.21-11.61,11.61v50.12c0,6.4,5.21,11.61,11.61,11.61Zm-3.94-61.73c0-2.17,1.77-3.94,3.94-3.94s3.94,1.77,3.94,3.94v50.12c0,2.17-1.77,3.94-3.94,3.94s-3.94-1.77-3.94-3.94v-50.12Z"/>
    <path class="cls-6" d="m327.67,132.64c1.69,1.21,3.64,1.8,5.58,1.8,2.98,0,5.92-1.38,7.79-3.98l21.64-30.09c3.08-4.29,2.11-10.29-2.18-13.38-2.08-1.49-4.61-2.08-7.14-1.67-2.53.41-4.74,1.78-6.24,3.86l-21.63,30.08c-3.09,4.29-2.11,10.29,2.18,13.38Zm4.04-8.9l21.65-30.09c.37-.51.96-.79,1.57-.79l1.11.35c.84.61,1.05,1.84.44,2.68l-21.66,30.09c-.61.84-1.84,1.04-2.67.44-.85-.62-1.05-1.84-.44-2.68Z"/>
    <path class="cls-6" d="m192.7,130.45c1.87,2.6,4.81,3.98,7.8,3.98,1.94,0,3.89-.59,5.58-1.8,4.29-3.09,5.27-9.09,2.18-13.38l-21.64-30.09c-3.09-4.29-9.09-5.27-13.38-2.18s-5.27,9.09-2.18,13.38l21.64,30.09Zm-14.98-37.24c.84-.61,2.06-.41,2.67.44l21.65,30.09c.6.84.4,2.07-.44,2.68-.84.6-2.07.41-2.67-.44l-21.65-30.09c-.61-.85-.4-2.07.44-2.68Z"/>
    <path class="cls-6" d="m108.13,168.28l31.61,19.35c1.52.93,3.24,1.41,4.98,1.41.75,0,1.51-.09,2.27-.27,2.49-.6,4.6-2.13,5.93-4.31,1.33-2.18,1.74-4.75,1.14-7.25-.6-2.49-2.14-4.6-4.31-5.93l-31.62-19.35c-4.5-2.76-10.42-1.33-13.18,3.17-1.33,2.18-1.74,4.75-1.14,7.24.61,2.5,2.14,4.6,4.32,5.94Zm3.37-9.18h0c.36-.58.9-.79,1.19-.86l.47-.05.98.28,31.61,19.35c.58.36.78.9.86,1.19.07.29.14.87-.22,1.45-.35.58-.89.79-1.19.86-.29.07-.87.14-1.45-.22l-31.62-19.35c-.58-.36-.78-.9-.85-1.19-.08-.3-.14-.88.22-1.46Z"/>
    <path class="cls-6" d="m394.45,190.63c1.7,0,3.43-.46,4.99-1.41l31.61-19.35c4.5-2.76,5.93-8.67,3.17-13.18h0c-2.76-4.51-8.67-5.93-13.18-3.17l-31.62,19.35c-4.5,2.76-5.93,8.67-3.17,13.18,1.81,2.95,4.97,4.58,8.2,4.58Zm-1.88-10.03c.07-.29.27-.83.86-1.19l31.62-19.35.98-.27c.65,0,1.3.33,1.66.91.54.89.25,2.1-.64,2.64l-31.62,19.35c-.88.54-2.09.25-2.64-.64-.35-.59-.29-1.16-.22-1.45Z"/>
    <path class="cls-6" d="m132.93,261.68c0-6.4-5.21-11.61-11.61-11.61h-50.11c-6.41,0-11.61,5.21-11.61,11.61s5.21,11.61,11.61,11.61h50.11c6.4,0,11.61-5.21,11.61-11.61Zm-65.67,0c0-2.18,1.76-3.94,3.94-3.94h50.11c2.18,0,3.95,1.77,3.95,3.94s-1.77,3.94-3.95,3.94h-50.11c-2.18,0-3.94-1.77-3.94-3.94Z"/>
    <path class="cls-6" d="m406.4,261.68c0,6.4,5.21,11.61,11.61,11.61h50.12c6.41,0,11.61-5.21,11.61-11.61s-5.21-11.61-11.61-11.61h-50.12c-6.4,0-11.61,5.21-11.61,11.61Zm65.67,0c0,2.17-1.77,3.94-3.94,3.94h-50.12c-2.17,0-3.94-1.77-3.94-3.94s1.77-3.94,3.94-3.94h50.12c2.17,0,3.94,1.76,3.94,3.94Z"/>
  </g>
</svg>