<?xml version="1.0" encoding="UTF-8"?>
<svg id="Layer_2" data-name="Layer 2" xmlns="http://www.w3.org/2000/svg" viewBox="0 0 528 528">
  <defs>
    <style>
      .cls-1 {
        fill: #a6c0b8;
      }

      .cls-2 {
        fill: #b487ab;
      }

      .cls-3 {
        fill: #f9f8dc;
      }

      .cls-4 {
        fill: #a56c92;
      }

      .cls-5 {
        fill: #fff;
      }

      .cls-6 {
        fill: #2e2825;
      }

      .cls-7 {
        fill: #282425;
      }

      .cls-8 {
        fill: #171c1c;
      }

      .cls-9 {
        fill: #9d4e7f;
      }

      .cls-10 {
        fill: #edc6df;
      }

      .cls-11 {
        fill: #1b1e21;
      }

      .cls-12 {
        fill: #773d66;
      }

      .cls-13 {
        fill: #151817;
      }

      .cls-14 {
        fill: #e6add0;
      }

      .cls-15 {
        fill: #fffffe;
      }

      .cls-16 {
        fill: #0d1b1b;
      }

      .cls-17 {
        fill: #f9f8de;
      }
    </style>
  </defs>
  <g id="Capa_2" data-name="Capa 2">
    <path class="cls-5" d="m323.51,427.96l13.36-38.01-13.36,38.01Z"/>
    <path class="cls-5" d="m339.17,383.4l30.51-86.8-30.51,86.8Z"/>
    <polygon class="cls-5" points="311.05 463.39 321.21 434.51 309.85 430.52 321.21 434.51 311.05 463.39"/>
    <path class="cls-5" d="m298.6,97.91c.75,1.11,1.29,2.37,1.57,3.72-.28-1.35-.82-2.62-1.57-3.72Z"/>
    <path class="cls-5" d="m289.97,93.31c1.44,0,2.81.29,4.05.82-1.25-.52-2.62-.82-4.05-.82Z"/>
    <path class="cls-5" d="m297.57,442.41c.25.83.41,1.67.49,2.51-.08-.84-.24-1.68-.49-2.51Z"/>
    <path class="cls-5" d="m424.06,122.71c1,.91,1.81,2,2.39,3.21-.58-1.2-1.38-2.3-2.39-3.21Z"/>
    <path class="cls-5" d="m264,528c145.8,0,264-118.2,264-264S409.8,0,264,0,0,118.2,0,264c0,145.8,118.2,264,264,264ZM99.05,121.97c2.2-4.1,5.84-7.09,10.26-8.43l68.85-20.85c4.43-1.34,9.12-.87,13.22,1.32s7.09,5.84,8.43,10.26l.86,2.82v-3.38c0-9.57,7.79-17.36,17.36-17.36h71.94c9.57,0,17.36,7.79,17.36,17.36v69.09l.29-.31,25.2-71.7c3.18-9.03,13.1-13.79,22.13-10.62l67.87,23.86c9.03,3.18,13.79,13.1,10.62,22.13l-55.92,159.06-.1.4-.21.47-47.21,134.28c1.24.87,1.81,2.48,1.29,3.98l-12.23,34.8c-2.83,8.04-10.41,13.08-18.49,13.08-2.15,0-4.33-.35-6.47-1.11l-16.4-5.77h-21.48l-34.51,10.45c-1.86.56-3.77.84-5.66.84-3.18,0-6.34-.79-9.24-2.34-4.62-2.48-8-6.59-9.51-11.58l-10.69-35.31c-.26-.88-.17-1.83.26-2.64.28-.53.7-.95,1.2-1.27l-67.85-224.12h0s-22.48-74.24-22.48-74.24c-1.35-4.38-.88-9.07,1.31-13.17Z"/>
    <polygon class="cls-5" points="297.57 442.41 287.88 410.42 194.25 438.77 287.88 410.42 297.57 442.41"/>
    <path class="cls-5" d="m194.66,431.4l-11.64-38.44,11.64,38.44Z"/>
    <path class="cls-5" d="m219.69,479.19c-.81.24-1.62.4-2.44.48.81-.08,1.63-.24,2.44-.48Z"/>
    <path class="cls-5" d="m183.18,98.89c1.69,0,3.38.42,4.92,1.25-1.54-.83-3.22-1.25-4.92-1.25Z"/>
    <path class="cls-16" d="m309.85,418.92v4.24l13.66,4.8,13.36-38.01-29.55-10.39v36.03c1.46.41,2.53,1.74,2.53,3.33Z"/>
    <polygon class="cls-8" points="369.69 296.6 307.32 274.68 307.32 372.2 339.17 383.4 369.69 296.6"/>
    <polygon class="cls-7" points="400.01 210.32 312.5 179.56 307.32 194.27 307.32 267.32 371.99 290.05 400.01 210.32"/>
    <path class="cls-1" d="m414.52,144.64c2.8-7.95-1.42-16.75-9.37-19.54l-65.15-22.9-.2-.05-.43.97-24.57,69.9,79.88,28.08,19.84-56.46Z"/>
    <path class="cls-5" d="m405.15,125.1c7.95,2.79,12.17,11.59,9.37,19.54l-19.84,56.45,7.64,2.69,24.57-69.9c.95-2.71.71-5.55-.44-7.96-.58-1.2-1.38-2.3-2.39-3.21-1-.91-2.19-1.64-3.55-2.12l-67.87-23.86c-1.14-.4-2.3-.59-3.44-.59-2.97,0-5.79,1.29-7.75,3.49-.66.74-1.21,1.57-1.65,2.5l.2.05,65.15,22.92Z"/>
    <path class="cls-6" d="m311.05,463.39l10.15-28.89-11.35-3.99v25.29c0,5.62-2.39,10.67-6.19,14.25,3.32-.8,6.18-3.21,7.39-6.66Z"/>
    <path class="cls-9" d="m290.13,402.64l1.11.16c.71.22,1.33.66,1.77,1.26l.51,1.03,3.14,10.36h3.72v-40.29h-18.56l8.31,27.48Z"/>
    <polygon class="cls-4" points="279.71 368.22 300.38 368.22 300.38 276.21 251.86 276.21 279.71 368.22"/>
    <polygon class="cls-2" points="249.76 269.26 300.38 269.26 300.38 184.76 224.17 184.76 249.76 269.26"/>
    <path class="cls-14" d="m207.61,130.04h0l14.46,47.77h70.09v-62.3c0-8.43-6.9-15.33-15.33-15.33h-68.59c-.4,1.11-.63,2.3-.63,3.55v26.31Z"/>
    <path class="cls-10" d="m292.17,115.51v62.3h8.21v-74.09c0-.72-.07-1.42-.21-2.1-.28-1.35-.82-2.61-1.57-3.72-1.12-1.66-2.72-2.98-4.58-3.78-1.24-.53-2.61-.82-4.05-.82h-71.94c-4.5,0-8.33,2.87-9.78,6.87h68.59c8.43.01,15.33,6.91,15.33,15.34Z"/>
    <polygon class="cls-11" points="300.38 427.74 300.38 422.39 298.76 422.39 300.38 427.74"/>
    <path class="cls-12" d="m120.2,209.41h0l67.85,224.13c-.49.32-.92.74-1.2,1.27-.44.81-.53,1.76-.26,2.64l10.69,35.31c1.51,4.99,4.89,9.1,9.51,11.58,2.9,1.55,6.06,2.34,9.24,2.34,1.9,0,3.8-.28,5.66-.84l34.51-10.45h21.48l16.4,5.77c2.14.75,4.33,1.11,6.47,1.11,8.08,0,15.66-5.04,18.49-13.08l12.23-34.8c.53-1.5-.05-3.11-1.29-3.98l47.21-134.28.21-.47.1-.4,55.92-159.06c3.18-9.03-1.59-18.96-10.62-22.13l-67.87-23.86c-9.03-3.18-18.96,1.59-22.13,10.62l-25.2,71.7-.29.31v-69.09c0-9.57-7.79-17.36-17.36-17.36h-71.94c-9.57,0-17.36,7.79-17.36,17.36v3.38l-.86-2.82c-1.34-4.42-4.33-8.06-8.43-10.26-4.1-2.19-8.79-2.66-13.22-1.32l-68.85,20.85c-4.42,1.34-8.07,4.33-10.26,8.43s-2.66,8.79-1.32,13.21l22.49,74.19Zm219.17-106.3l.43-.97c.44-.93.99-1.76,1.65-2.5,1.96-2.2,4.79-3.49,7.75-3.49,1.14,0,2.3.19,3.44.59l67.87,23.86c1.36.48,2.55,1.21,3.55,2.12s1.81,2,2.39,3.21c1.16,2.41,1.39,5.25.44,7.96l-24.57,69.9-7.64-2.69-79.88-28.08,24.57-69.91Zm-32.05,91.16l5.17-14.71,87.52,30.77-28.03,79.72-64.67-22.73v-73.05h.01Zm0,80.41l62.36,21.92-30.51,86.8-31.85-11.2v-97.52Zm0,104.88l29.55,10.39-13.36,38.01-13.66-4.8v-4.24c0-1.59-1.07-2.91-2.53-3.33v-36.03Zm2.53,76.25v-25.29l11.35,3.99-10.15,28.89c-1.21,3.45-4.07,5.86-7.39,6.66,3.8-3.58,6.19-8.64,6.19-14.25ZM127.85,210.73l88.79-26.88,24.52,80.99-88.79,26.88-24.52-80.99Zm26.54,87.63l88.79-26.88,26.63,87.96-88.79,26.88-26.63-87.96Zm28.63,94.6l88.79-26.88,11.64,38.44-88.79,26.88h0l-11.64-38.44Zm112.25,61.09c-1.54,1.89-3.63,3.36-6.13,4.11l-69.45,21.03c-.81.24-1.62.4-2.44.48-2.46.24-4.94-.26-7.17-1.45-2.99-1.6-5.17-4.25-6.14-7.46l-9.68-31.99,93.64-28.35,9.69,31.99c.25.83.41,1.67.49,2.51.29,3.34-.77,6.61-2.81,9.13Zm5.11-26.31l-1.62-5.35h1.62v5.35Zm0-12.29h-3.72l-3.14-10.36-.51-1.03c-.44-.61-1.07-1.05-1.77-1.26l-1.11-.16-8.32-27.48h18.56v40.29h.01Zm0-47.23h-20.67l-27.85-92.01h48.52v92.01h0Zm0-98.96h-50.62l-25.58-84.5h76.21v84.5h-.01Zm-82.36-175.95h71.94c1.44,0,2.81.29,4.05.82,1.87.79,3.46,2.11,4.58,3.78.75,1.11,1.29,2.37,1.57,3.72.14.68.21,1.38.21,2.1v74.09h-78.3l-14.46-47.77v-26.31c0-1.25.23-2.44.63-3.55,1.46-4.01,5.29-6.88,9.78-6.88Zm-114.04,35.83c.14-1.34.54-2.66,1.2-3.89,1.32-2.46,3.5-4.26,6.15-5.06l68.86-20.85c.99-.3,2-.45,3-.45,1.69,0,3.38.42,4.92,1.25,2.46,1.32,4.26,3.5,5.06,6.15l21.47,70.91-12.93,3.91-75.86,22.97-20.38-67.3-1.09-3.61c-.41-1.32-.53-2.69-.4-4.03Z"/>
    <rect class="cls-3" x="186.88" y="378.64" width="92.77" height="40.16" transform="translate(-105.54 84.71) rotate(-16.85)"/>
    <rect class="cls-17" x="138.14" y="195.45" width="92.77" height="84.62" transform="translate(-60.98 63.68) rotate(-16.85)"/>
    <rect class="cls-17" x="165.73" y="282.94" width="92.77" height="91.9" transform="translate(-86.21 75.58) rotate(-16.85)"/>
    <path class="cls-15" d="m166.66,118.26l-61.19,18.52,20.38,67.3,75.86-22.97-15.93-52.63c-2.45-8.06-11.06-12.67-19.12-10.22Z"/>
    <path class="cls-3" d="m105.47,136.78l61.19-18.52c8.07-2.44,16.67,2.16,19.11,10.23l15.93,52.63,12.93-3.91-21.47-70.91c-.8-2.65-2.6-4.83-5.06-6.15-1.54-.83-3.23-1.25-4.92-1.25-1,0-2.01.15-3,.45l-68.86,20.85c-2.65.8-4.83,2.6-6.15,5.06-.66,1.23-1.06,2.55-1.2,3.89-.13,1.34,0,2.71.4,4.03l1.1,3.6Z"/>
    <path class="cls-6" d="m287.88,410.42l-93.64,28.35,9.68,31.99c.97,3.21,3.15,5.86,6.14,7.46,2.24,1.2,4.72,1.69,7.17,1.45.82-.08,1.63-.24,2.44-.48l69.45-21.03c2.5-.76,4.59-2.22,6.13-4.11,2.05-2.52,3.1-5.79,2.79-9.13-.08-.84-.24-1.68-.49-2.51l-9.67-31.99Zm-6.58,45.22c-7.03,0-12.75-5.72-12.75-12.75s5.72-12.75,12.75-12.75,12.75,5.72,12.75,12.75c0,7.03-5.71,12.75-12.75,12.75Z"/>
    <path class="cls-13" d="m281.3,437.08c-3.2,0-5.81,2.61-5.81,5.81s2.6,5.81,5.81,5.81,5.81-2.6,5.81-5.81-2.6-5.81-5.81-5.81Z"/>
    <path class="cls-12" d="m281.3,430.14c-7.03,0-12.75,5.72-12.75,12.75s5.72,12.75,12.75,12.75,12.75-5.72,12.75-12.75c0-7.03-5.71-12.75-12.75-12.75Zm0,18.56c-3.2,0-5.81-2.6-5.81-5.81s2.6-5.81,5.81-5.81,5.81,2.61,5.81,5.81-2.6,5.81-5.81,5.81Z"/>
  </g>
</svg>