<?xml version="1.0" encoding="UTF-8"?>
<svg id="Layer_2" data-name="Layer 2" xmlns="http://www.w3.org/2000/svg" viewBox="0 0 528 528">
  <defs>
    <style>
      .cls-1 {
        fill: #f9f8dc;
      }

      .cls-2 {
        fill: #fff;
      }

      .cls-3 {
        fill: #97386f;
      }

      .cls-4 {
        fill: #773d66;
      }

      .cls-5 {
        fill: #b0c7ca;
      }
    </style>
  </defs>
  <g id="Capa_2" data-name="Capa 2">
    <polygon class="cls-2" points="208.26 405.53 208.26 405.53 227.31 339.13 208.26 405.53"/>
    <path class="cls-2" d="m261.19,268.93c0,5.93,4.83,10.76,10.76,10.76s10.76-4.83,10.76-10.76-4.83-10.76-10.76-10.76c-5.94-.01-10.76,4.83-10.76,10.76Z"/>
    <path class="cls-2" d="m228.2,222.19c-4.06,5.21-8.57,10.44-13.57,15.58-7.61,7.82-16.38,15.44-26.48,22.5,10.09-7.06,18.86-14.68,26.48-22.5,5.01-5.14,9.52-10.37,13.57-15.58Z"/>
    <path class="cls-2" d="m259.27,163.37c-1.5,4.64-3.31,9.62-5.48,14.85-5.31,12.77-13.41,28.31-25.58,43.96,12.17-15.64,20.28-31.19,25.58-43.96,2.17-5.23,3.97-10.21,5.48-14.85Z"/>
    <path class="cls-2" d="m201.07,268.59c5.1,3.78,10.76,8.59,16.23,14.52-5.46-5.93-11.12-10.74-16.23-14.52Z"/>
    <path class="cls-2" d="m188.15,260.27c2.44,1.35,5.62,3.23,9.2,5.68-3.58-2.45-6.75-4.34-9.2-5.68Z"/>
    <path class="cls-2" d="m261.3,156.69c1.21-4.26,2.15-8.13,2.87-11.5-.72,3.37-1.66,7.24-2.87,11.5Z"/>
    <path class="cls-2" d="m266.18,133.69c-.32,2.49-.92,6.44-2,11.5,1.08-5.07,1.68-9.01,2-11.5Z"/>
    <path class="cls-2" d="m225.27,292.84c-2.54-3.53-5.23-6.77-7.96-9.73,2.73,2.96,5.42,6.2,7.96,9.73Z"/>
    <path class="cls-2" d="m264,528c145.8,0,264-118.2,264-264S409.8,0,264,0,0,118.2,0,264c0,145.8,118.2,264,264,264Zm-63.62-85.47h-13.01v-6.51h13.01v6.51Zm26.02,0h-13.01v-6.51h13.01v6.51Zm26.03,0h-13.01v-6.51h13.01v6.51Zm26.02,0h-13.01v-6.51h13.01v6.51Zm26.03,0h-13.01v-6.51h13.01v6.51Zm26.02,0h-13.01v-6.51h13.01v6.51Zm26.03,0h-13.01v-6.51h13.01v6.51Zm30.66-357.47h29.76v29.76h-29.76v-29.76Zm11.63,308.55v-13.05h6.51v13.05h-6.51Zm6.51,13.06v13.05h-6.51v-13.05h6.51Zm-6.51-39.16v-13.05h6.51v13.05h-6.51Zm0-26.11v-13.05h6.51v13.05h-6.51Zm0-26.11v-13.05h6.51v13.05h-6.51Zm0-26.1v-13.05h6.51v13.05h-6.51Zm0-26.11v-13.05h6.51v13.05h-6.51Zm0-26.11v-13.05h6.51v13.05h-6.51Zm0-26.1v-13.06h6.51v13.06h-6.51Zm0-26.11v-13.05h6.51v13.05h-6.51Zm0-26.1v-13.05h6.51v13.05h-6.51Zm0-26.11v-13.05h6.51v13.05h-6.51Zm-11.63,291.85h29.76v29.77h-29.76v-29.77Zm-17.65-327.72h13.01v6.51h-13.01v-6.51Zm0,339.35h13.01v6.51h-13.01v-6.51Zm-26.03-339.35h13.01v6.51h-13.01v-6.51Zm-26.02,0h13.01v6.51h-13.01v-6.51Zm-26.03,0h13.02v6.51h-13.01v-6.51h0Zm-26.02,0h13.01v6.51h-13.01v-6.51Zm-26.02,0h13.01v6.51h-13.01v-6.51Zm-26.03,0h13.01v6.51h-13.01v-6.51Zm-26.03,0h13.01v6.51h-13.01v-6.51Zm-7.39,161.27c73.2-48.1,79.98-126.97,80.04-127.77.13-1.69,1.54-3.01,3.24-3.01h17.38c1.7,0,3.11,1.31,3.24,3.01.02.2,1.66,20.15,12.34,45.78,9.82,23.56,29.54,56.92,67.7,81.99,1,.65,1.56,1.8,1.46,2.99s-.84,2.23-1.93,2.71c-.47.21-46.4,21.15-54.83,68.97h10.41c1.45,0,2.73.96,3.13,2.35l20.92,72.92c.28.98.09,2.04-.53,2.85-.62.82-1.58,1.3-2.6,1.3h-136c-1.02,0-1.98-.48-2.6-1.3-.62-.82-.81-1.87-.53-2.85l20.92-72.92c.4-1.39,1.68-2.35,3.13-2.35h10.41c-8.42-47.82-54.35-68.77-54.83-68.97-1.09-.48-1.82-1.53-1.92-2.71-.1-1.19.46-2.33,1.45-2.99Zm-18.63-161.27h13.01v6.51h-13.01v-6.51Zm0,339.35h13.01v6.51h-13.01v-6.51ZM126.94,85.06h29.76v29.76h-29.76v-29.76Zm11.62,308.55v-13.05h6.51v13.05h-6.51Zm6.51,13.06v13.05h-6.51v-13.05h6.51Zm-6.51-39.16v-13.05h6.51v13.05h-6.51Zm0-26.11v-13.06h6.51v13.06h-6.51Zm0-26.11v-13.05h6.51v13.05h-6.51Zm0-26.1v-13.05h6.51v13.05h-6.51Zm0-26.11v-13.05h6.51v13.05h-6.51Zm0-26.11v-13.05h6.51v13.05h-6.51Zm0-26.1v-13.05h6.51v13.05h-6.51Zm0-26.11v-13.05h6.51v13.05h-6.51Zm0-26.1v-13.05h6.51v13.05h-6.51Zm0-26.11v-13.05h6.51v13.05h-6.51Zm-11.62,291.85h29.76v29.77h-29.76v-29.77Z"/>
    <polygon class="cls-4" points="243.32 339.13 228.93 389.29 330.97 389.29 316.58 339.13 304.82 339.13 243.32 339.13"/>
    <polygon class="cls-3" points="243.32 339.13 239.07 339.13 227.31 339.13 208.26 405.53 335.63 405.53 330.97 389.29 228.93 389.29 243.32 339.13"/>
    <path class="cls-2" d="m311.22,304.85c4.88-9.39,10.97-17.23,17.2-23.67,10.39-10.73,21.17-17.52,27.32-20.91-36.62-25.64-55.86-58.53-65.63-82.04-8.69-20.93-11.55-37.89-12.4-44.54h-2.51v118.29c7.97,1.53,14.02,8.55,14.02,16.96,0,9.53-7.75,17.27-17.27,17.27s-17.27-7.75-17.27-17.27c0-8.41,6.05-15.43,14.02-16.96v-118.29h-2.51c-.32,2.49-.92,6.44-2,11.5-.72,3.37-1.66,7.25-2.87,11.5-.61,2.14-1.28,4.37-2.03,6.68-1.5,4.64-3.31,9.62-5.48,14.85-5.31,12.77-13.41,28.31-25.58,43.96-4.06,5.21-8.57,10.44-13.57,15.58,14.12,37.62,54.28,65.69,96.56,67.09Z"/>
    <path class="cls-5" d="m201.07,268.59c5.1,3.78,10.76,8.59,16.23,14.52,2.73,2.96,5.42,6.2,7.96,9.73,7.64,10.58,14.01,23.76,16.61,39.79h60.13c1.27-7.84,3.45-14.99,6.23-21.48.93-2.17,1.92-4.26,2.97-6.29-42.28-1.4-82.44-29.47-96.58-67.09-7.61,7.82-16.38,15.44-26.48,22.5,2.44,1.35,5.62,3.23,9.2,5.68,1.21.82,2.46,1.69,3.73,2.64Z"/>
    <path class="cls-4" d="m180.44,263.65c.48.21,46.41,21.15,54.83,68.97h-10.41c-1.45,0-2.73.96-3.13,2.35l-20.92,72.92c-.28.98-.08,2.04.53,2.85.62.82,1.58,1.3,2.6,1.3h136.01c1.02,0,1.98-.48,2.6-1.3.62-.82.81-1.87.53-2.85l-20.92-72.92c-.4-1.39-1.68-2.35-3.13-2.35h-10.41c8.42-47.82,54.35-68.77,54.83-68.97,1.09-.48,1.83-1.53,1.93-2.71.1-1.19-.46-2.33-1.46-2.99-38.16-25.07-57.88-58.43-67.7-81.99-10.68-25.63-12.32-45.58-12.34-45.78-.13-1.7-1.54-3.01-3.24-3.01h-17.38c-1.7,0-3.12,1.31-3.24,3.01-.06.8-6.84,79.67-80.04,127.77-.99.65-1.55,1.8-1.45,2.99.08,1.18.82,2.22,1.91,2.71Zm136.14,75.48l14.39,50.16,4.66,16.24h-127.37l19.05-66.4h89.27Zm-33.87-70.2c0,5.93-4.83,10.76-10.76,10.76s-10.76-4.83-10.76-10.76,4.83-10.76,10.76-10.76c5.93-.01,10.76,4.83,10.76,10.76Zm-68.08-31.17c5.01-5.14,9.52-10.37,13.57-15.58,12.17-15.64,20.28-31.19,25.58-43.96,2.17-5.23,3.98-10.22,5.48-14.85.75-2.32,1.43-4.55,2.03-6.68,1.21-4.26,2.15-8.13,2.87-11.5,1.08-5.06,1.69-9,2-11.5h2.51v118.29c-7.97,1.53-14.02,8.55-14.02,16.96,0,9.53,7.75,17.27,17.27,17.27s17.27-7.75,17.27-17.27c0-8.41-6.05-15.43-14.02-16.96v-118.29h2.51c.85,6.66,3.7,23.61,12.4,44.54,9.77,23.51,29.01,56.4,65.63,82.04-6.16,3.39-16.93,10.18-27.32,20.91-6.23,6.44-12.33,14.29-17.2,23.67-1.05,2.03-2.05,4.12-2.97,6.29-2.78,6.5-4.96,13.65-6.23,21.48h-60.11c-2.6-16.03-8.97-29.2-16.61-39.79-2.54-3.53-5.23-6.77-7.96-9.73-5.47-5.93-11.13-10.74-16.23-14.52-1.28-.95-2.52-1.83-3.71-2.64-3.59-2.45-6.76-4.34-9.2-5.68,10.08-7.06,18.85-14.67,26.46-22.5Z"/>
    <rect class="cls-4" x="265.44" y="436.03" width="13.01" height="6.51"/>
    <rect class="cls-4" x="187.36" y="436.03" width="13.01" height="6.51"/>
    <rect class="cls-4" x="317.49" y="436.03" width="13.01" height="6.51"/>
    <rect class="cls-4" x="213.39" y="436.03" width="13.01" height="6.51"/>
    <rect class="cls-4" x="239.42" y="436.03" width="13.01" height="6.51"/>
    <rect class="cls-4" x="369.54" y="436.03" width="13.01" height="6.51"/>
    <rect class="cls-4" x="343.51" y="436.03" width="13.01" height="6.51"/>
    <rect class="cls-4" x="291.46" y="436.03" width="13.01" height="6.51"/>
    <rect class="cls-4" x="161.34" y="436.03" width="13.01" height="6.51"/>
    <rect class="cls-4" x="138.56" y="250.03" width="6.51" height="13.05"/>
    <rect class="cls-4" x="138.56" y="223.92" width="6.51" height="13.05"/>
    <rect class="cls-4" x="138.56" y="197.82" width="6.51" height="13.05"/>
    <rect class="cls-4" x="138.56" y="276.13" width="6.51" height="13.05"/>
    <rect class="cls-4" x="138.56" y="171.71" width="6.51" height="13.05"/>
    <rect class="cls-4" x="138.56" y="302.24" width="6.51" height="13.05"/>
    <rect class="cls-4" x="138.56" y="380.56" width="6.51" height="13.05"/>
    <rect class="cls-4" x="138.56" y="406.67" width="6.51" height="13.05"/>
    <rect class="cls-4" x="138.56" y="145.61" width="6.51" height="13.05"/>
    <rect class="cls-4" x="138.56" y="328.35" width="6.51" height="13.06"/>
    <rect class="cls-4" x="138.56" y="354.45" width="6.51" height="13.05"/>
    <rect class="cls-4" x="138.56" y="119.5" width="6.51" height="13.05"/>
    <rect class="cls-4" x="369.54" y="96.68" width="13.01" height="6.51"/>
    <rect class="cls-4" x="161.34" y="96.68" width="13.01" height="6.51"/>
    <rect class="cls-4" x="343.51" y="96.68" width="13.01" height="6.51"/>
    <rect class="cls-4" x="187.36" y="96.68" width="13.01" height="6.51"/>
    <rect class="cls-4" x="213.39" y="96.68" width="13.01" height="6.51"/>
    <rect class="cls-4" x="239.42" y="96.68" width="13.01" height="6.51"/>
    <rect class="cls-4" x="265.44" y="96.68" width="13.01" height="6.51"/>
    <rect class="cls-4" x="291.46" y="96.68" width="13.01" height="6.51"/>
    <rect class="cls-4" x="317.49" y="96.68" width="13.01" height="6.51"/>
    <rect class="cls-4" x="398.82" y="380.56" width="6.51" height="13.05"/>
    <rect class="cls-4" x="398.82" y="406.67" width="6.51" height="13.05"/>
    <rect class="cls-4" x="398.82" y="276.13" width="6.51" height="13.05"/>
    <rect class="cls-4" x="398.82" y="171.71" width="6.51" height="13.05"/>
    <rect class="cls-4" x="398.82" y="223.92" width="6.51" height="13.05"/>
    <rect class="cls-4" x="398.82" y="119.5" width="6.51" height="13.05"/>
    <rect class="cls-4" x="398.82" y="197.81" width="6.51" height="13.06"/>
    <rect class="cls-4" x="398.82" y="354.45" width="6.51" height="13.05"/>
    <rect class="cls-4" x="398.82" y="145.61" width="6.51" height="13.05"/>
    <rect class="cls-4" x="398.82" y="328.35" width="6.51" height="13.05"/>
    <rect class="cls-4" x="398.82" y="302.24" width="6.51" height="13.05"/>
    <rect class="cls-4" x="398.82" y="250.03" width="6.51" height="13.05"/>
    <path class="cls-4" d="m156.7,85.06h-29.76v29.76h29.76v-29.76Zm-7.09,22.66h-15.58v-15.57h15.58v15.57Z"/>
    <path class="cls-4" d="m416.96,85.06h-29.76v29.76h29.76v-29.76Zm-7.1,22.66h-15.58v-15.57h15.58v15.57Z"/>
    <path class="cls-4" d="m156.7,424.4h-29.76v29.77h29.76v-29.77Zm-7.09,22.67h-15.58v-15.57h15.58v15.57Z"/>
    <path class="cls-4" d="m416.96,424.4h-29.76v29.77h29.76v-29.77Zm-7.1,22.67h-15.58v-15.57h15.58v15.57Z"/>
    <rect class="cls-1" x="134.03" y="92.15" width="15.58" height="15.57"/>
    <rect class="cls-1" x="394.28" y="92.15" width="15.58" height="15.57"/>
    <rect class="cls-1" x="134.03" y="431.49" width="15.58" height="15.57"/>
    <rect class="cls-1" x="394.28" y="431.49" width="15.58" height="15.57"/>
  </g>
</svg>