<?xml version="1.0" encoding="UTF-8"?>
<svg id="Layer_2" data-name="Layer 2" xmlns="http://www.w3.org/2000/svg" viewBox="0 0 528 528">
  <defs>
    <style>
      .cls-1 {
        font-size: 80.85px;
      }

      .cls-1, .cls-2 {
        fill: #fff;
      }

      .cls-1, .cls-3 {
        font-family: MyriadPro-Regular, 'Myriad Pro';
      }

      .cls-4 {
        fill: #a56c92;
      }

      .cls-5 {
        fill: #9d5986;
      }

      .cls-6 {
        fill: #171c1c;
      }

      .cls-3 {
        font-size: 12px;
      }

      .cls-7 {
        letter-spacing: -.01em;
      }

      .cls-8 {
        letter-spacing: 0em;
      }

      .cls-9 {
        fill: #773d66;
      }

      .cls-10 {
        fill: #0d1a1a;
      }

      .cls-11 {
        fill: #362f28;
      }

      .cls-12 {
        fill: #687688;
      }

      .cls-13 {
        fill: #4b6881;
      }

      .cls-14 {
        letter-spacing: -.01em;
      }

      .cls-15 {
        fill: #c29cae;
      }
    </style>
  </defs>
  <g id="Capa_2" data-name="Capa 2">
    <path class="cls-2" d="m264,528c145.8,0,264-118.2,264-264S409.8,0,264,0,0,118.2,0,264c0,145.8,118.2,264,264,264Zm-196.59-156.17v-241.85c0-7.2,5.86-13.06,13.06-13.06h355.13c7.2,0,13.06,5.86,13.06,13.06v241.85c0,7.2-5.86,13.06-13.06,13.06h-149.96v21.11c17.72,5.02,31.2,14.66,36.33,26.51h11.49c5.99,0,10.87,4.88,10.87,10.86v1.39c0,5.99-4.88,10.87-10.87,10.87h-151.67c-5.99,0-10.86-4.88-10.86-10.87v-1.39c0-5.99,4.87-10.86,10.86-10.86h11.49c5.13-11.85,18.61-21.5,36.33-26.51v-21.11H80.46c-7.19,0-13.05-5.86-13.05-13.06Z"/>
    <path class="cls-15" d="m236.39,384.89v19.47c4.33-.88,8.86-1.5,13.54-1.83l-9.53-17.64h-4.01Z"/>
    <path class="cls-4" d="m278.87,404.36v-19.47h-38.47l9.53,17.64c2.53-.18,5.09-.28,7.7-.28,7.43,0,14.57.75,21.24,2.11Z"/>
    <path class="cls-15" d="m200.85,432.51h113.56c-7.99-13.57-30.71-23.49-56.78-23.49s-48.79,9.92-56.78,23.49Z"/>
    <path class="cls-15" d="m93.44,368.64h154.93c-.11-.58-.17-1.18-.17-1.8,0-5.2,4.23-9.43,9.43-9.43s9.43,4.23,9.43,9.43c0,.62-.07,1.21-.17,1.8h174.99v-238.66c0-3.47-2.82-6.29-6.29-6.29H83.76v235.27c.01,5.33,4.36,9.68,9.68,9.68Zm-9.4-212.7c0-8.99,7.32-16.31,16.31-16.31h314.56c8.99,0,16.31,7.32,16.31,16.31v183.4c0,9-7.32,16.31-16.31,16.31H100.35c-8.99,0-16.31-7.32-16.31-16.31v-183.4h0Z"/>
    <path class="cls-4" d="m435.6,378.12c3.47,0,6.29-2.82,6.29-6.29v-3.19h-174.99c-.84,4.35-4.67,7.64-9.26,7.64s-8.42-3.29-9.26-7.64H93.45c-5.32,0-9.67-4.35-9.67-9.67V123.7h-3.3c-3.47,0-6.29,2.82-6.29,6.29v241.85c0,3.47,2.82,6.29,6.29,6.29h355.12Z"/>
    <path class="cls-11" d="m306.17,228.47c56.89,0,104.08-35.07,113.03-81.04-1.29-.65-2.75-1.03-4.29-1.03h-221.95c8.44,46.47,55.89,82.07,113.21,82.07Z"/>
    <path class="cls-6" d="m282.25,308.32c62.07,0,115.82-28.29,142.2-69.58v-82.8c0-3.72-2.15-6.95-5.26-8.52-8.95,45.97-56.14,81.04-113.03,81.04s-104.77-35.6-113.21-82.07h-64.25c-3.89,11.01-6,22.62-6,34.62.01,70.31,71.44,127.31,159.55,127.31Z"/>
    <path class="cls-12" d="m262.42,365.75c-.5-2.19-2.45-3.83-4.79-3.83-2.72,0-4.92,2.21-4.92,4.92,0,.78.2,1.52.53,2.18.87.37,1.82.59,2.82.59,2.77,0,5.16-1.57,6.36-3.86Z"/>
    <path class="cls-13" d="m256.06,369.61c-1,0-1.96-.22-2.82-.59.81,1.62,2.46,2.75,4.4,2.75,2.71,0,4.92-2.21,4.92-4.92l-.14-1.09c-1.2,2.28-3.59,3.85-6.36,3.85Z"/>
    <path class="cls-10" d="m100.35,348.89h314.56c5.27,0,9.55-4.29,9.55-9.55v-100.6c-26.38,41.3-80.14,69.58-142.2,69.58-88.11,0-159.54-57-159.54-127.31,0-12.01,2.1-23.61,6-34.62h-28.36c-5.26,0-9.54,4.29-9.54,9.55v183.4c-.01,5.27,4.27,9.55,9.53,9.55Z"/>
    <path class="cls-9" d="m100.35,355.66h314.56c8.99,0,16.31-7.32,16.31-16.31v-183.4c0-8.99-7.32-16.31-16.31-16.31H100.35c-8.99,0-16.31,7.32-16.31,16.31v183.4c0,8.99,7.32,16.31,16.31,16.31Zm-9.54-199.72c0-5.26,4.28-9.55,9.54-9.55h314.56c1.54,0,3,.38,4.29,1.03,3.12,1.57,5.26,4.8,5.26,8.52v183.4c0,5.26-4.28,9.55-9.55,9.55H100.35c-5.26,0-9.54-4.29-9.54-9.55v-183.4h0Z"/>
    <path class="cls-9" d="m257.63,357.41c-5.21,0-9.43,4.23-9.43,9.43,0,.62.06,1.21.17,1.8.84,4.35,4.67,7.64,9.26,7.64s8.42-3.29,9.26-7.64c.11-.58.17-1.18.17-1.8.01-5.2-4.22-9.43-9.43-9.43Zm0,14.35c-1.93,0-3.59-1.13-4.4-2.75-.33-.66-.53-1.39-.53-2.18,0-2.71,2.21-4.92,4.92-4.92,2.34,0,4.29,1.64,4.79,3.83l.14,1.09c.01,2.73-2.2,4.93-4.92,4.93Z"/>
    <path class="cls-4" d="m177.7,443.37v.93c1.32.83,2.93,1.32,4.67,1.32h150.51c1.74,0,3.36-.5,4.67-1.32v-.93c0-2.26-1.84-4.1-4.1-4.1h-151.67c-2.24.01-4.08,1.85-4.08,4.1Z"/>
    <path class="cls-5" d="m182.37,445.62c-1.74,0-3.36-.5-4.67-1.32v.46c0,2.26,1.84,4.1,4.1,4.1h151.67c2.26,0,4.1-1.84,4.1-4.1v-.46c-1.32.83-2.93,1.32-4.67,1.32h-150.53Z"/>
    <path class="cls-9" d="m229.62,384.89v21.11c-17.72,5.02-31.2,14.66-36.33,26.51h-11.49c-5.99,0-10.86,4.88-10.86,10.86v1.39c0,5.99,4.87,10.87,10.86,10.87h151.67c5.99,0,10.87-4.88,10.87-10.87v-1.39c0-5.99-4.88-10.86-10.87-10.86h-11.49c-5.13-11.85-18.61-21.5-36.33-26.51v-21.11h149.96c7.2,0,13.06-5.86,13.06-13.06v-241.85c0-7.2-5.86-13.06-13.06-13.06H80.48c-7.2,0-13.06,5.86-13.06,13.06v241.85c0,7.2,5.86,13.06,13.06,13.06h149.14Zm103.84,54.39c2.26,0,4.1,1.84,4.1,4.1v1.39c0,2.26-1.84,4.1-4.1,4.1h-151.67c-2.26,0-4.1-1.84-4.1-4.1v-1.4c0-2.26,1.84-4.1,4.1-4.1h151.67Zm-19.05-6.77h-113.56c7.99-13.57,30.71-23.49,56.78-23.49s48.79,9.92,56.78,23.49Zm-78.02-28.15v-19.47h42.48v19.47c-6.67-1.36-13.81-2.11-21.24-2.11-2.61,0-5.18.1-7.7.28-4.68.33-9.2.95-13.54,1.83Zm-162.21-32.53v-241.85c0-3.47,2.82-6.29,6.29-6.29h355.13c3.47,0,6.29,2.82,6.29,6.29v241.85c0,3.47-2.82,6.29-6.29,6.29H80.47c-3.47,0-6.29-2.82-6.29-6.29Z"/>
    <text class="cls-3" transform="translate(183.38 233.06)"><tspan class="cls-7" x="0" y="0">L</tspan><tspan x="5.5" y="0">o</tspan><tspan class="cls-14" x="12.08" y="0">r</tspan><tspan class="cls-8" x="15.89" y="0">em ipsum</tspan></text>
    <text class="cls-1" transform="translate(199.41 269.61)"><tspan x="0" y="0">&lt; &gt;</tspan></text>
  </g>
</svg>