<?xml version="1.0" encoding="utf-8"?>
<!-- Generator: Adobe Illustrator 27.5.0, SVG Export Plug-In . SVG Version: 6.00 Build 0)  -->
<svg version="1.1" id="Capa_2" xmlns="http://www.w3.org/2000/svg" xmlns:xlink="http://www.w3.org/1999/xlink" x="0px" y="0px"
	 viewBox="0 0 2372 1898" style="enable-background:new 0 0 2372 1898;" xml:space="preserve">
<style type="text/css">
	.st0{fill:#7CC6DD;}
	.st1{fill:#FFFFFF;}
	.st2{fill:#0D1B1B;}
	.st3{fill:#171C1C;}
	.st4{fill:#282425;}
	.st5{fill:#A6C0B8;}
	.st6{fill:#2E2825;}
	.st7{fill:#9D4E7F;}
	.st8{fill:#A56C92;}
	.st9{fill:#B487AB;}
	.st10{fill:#E6ADD0;}
	.st11{fill:#EDC6DF;}
	.st12{fill:#1B1E21;}
	.st13{fill:#773D66;}
	.st14{fill:#F9F8DC;}
	.st15{fill:#F9F8DE;}
	.st16{fill:#FFFFFE;}
	.st17{fill:#151817;}
	.st18{fill:#F0EBF3;}
	.st19{fill:#FAF9E1;}
	.st20{fill:#FEFEFB;}
	.st21{fill:#9D5383;}
	.st22{fill:#C6DFD9;}
	.st23{fill:#E6F0EE;}
	.st24{fill:#A3CCB5;}
	.st25{fill:#F6F3F7;}
	.st26{fill:#F18F51;}
	.st27{fill:#F4AB70;}
	.st28{fill:#F8D8C6;}
	.st29{fill:#7EC8C6;}
	.st30{fill:#42B8B1;}
	.st31{fill:#AEDBDF;}
	.st32{fill:#97386F;}
	.st33{fill:#B0C7CA;}
	.st34{fill:#6BC3C2;}
	.st35{fill:#754668;}
	.st36{fill:#65375B;}
	.st37{fill:#E2CBCF;}
	.st38{fill:#936D8D;}
	.st39{fill:#5E3358;}
	.st40{fill:#DCA3CA;}
	.st41{fill:#F7EEBF;}
	.st42{fill:#D374AC;}
	.st43{fill:#CC5FA0;}
	.st44{fill:#DBAFCE;}
	.st45{fill:#667185;}
	.st46{fill:#49667F;}
	.st47{fill:#14536F;}
	.st48{fill:#1C1D1C;}
	.st49{fill:#635978;}
	.st50{fill:#F8F6D0;}
	.st51{fill:#B1C8D0;}
	.st52{fill:#C29CAE;}
	.st53{fill:#362F28;}
	.st54{fill:#687688;}
	.st55{fill:#4B6881;}
	.st56{fill:#0D1A1A;}
	.st57{fill:#9D5986;}
</style>
<rect x="8.42" y="0.32" class="st0" width="2371.71" height="1897.37"/>
<path class="st1" d="M1191.82,829.74c145.8,0,264-118.2,264-264c0-145.8-118.2-264-264-264c-145.8,0-264,118.2-264,264
	C927.82,711.54,1046.02,829.74,1191.82,829.74z M988.21,677.77v-44.51V508.1v-44.51c0-9.44,7.68-17.13,17.13-17.13h119.04v-28.35
	c0-4.51,3.67-8.17,8.17-8.17h106.6c4.51,0,8.18,3.67,8.18,8.17v28.35h33.15v-6.98c0-4.22,3.4-7.65,7.61-7.7v-2.2
	c0-4.25,3.42-7.71,7.63-7.71h24.99c3.85,0,7.1,2.91,7.57,6.77l0.06,0.94v2.2c4.21,0.05,7.61,3.48,7.61,7.7v6.98h30.41
	c9.45,0,17.13,7.69,17.13,17.13v44.51v125.15v44.51c0,9.45-7.69,17.13-17.13,17.13h-361.03
	C995.89,694.9,988.21,687.22,988.21,677.77z"/>
<path class="st1" d="M531.03,729.7l13.36-38.01L531.03,729.7z"/>
<path class="st1" d="M546.69,685.14l30.51-86.8L546.69,685.14z"/>
<polygon class="st1" points="518.57,765.13 528.73,736.25 517.37,732.26 528.73,736.25 "/>
<path class="st1" d="M506.12,399.65c0.75,1.11,1.29,2.37,1.57,3.72C507.41,402.02,506.87,400.75,506.12,399.65z"/>
<path class="st1" d="M497.49,395.05c1.44,0,2.81,0.29,4.05,0.82C500.29,395.35,498.92,395.05,497.49,395.05z"/>
<path class="st1" d="M505.09,744.15c0.25,0.83,0.41,1.67,0.49,2.51C505.5,745.82,505.34,744.98,505.09,744.15z"/>
<path class="st1" d="M631.58,424.45c1,0.91,1.81,2,2.39,3.21C633.39,426.46,632.59,425.36,631.58,424.45z"/>
<path class="st1" d="M471.52,829.74c145.8,0,264-118.2,264-264c0-145.8-118.2-264-264-264c-145.8,0-264,118.2-264,264
	C207.52,711.54,325.72,829.74,471.52,829.74z M306.57,423.71c2.2-4.1,5.84-7.09,10.26-8.43l68.85-20.85
	c4.43-1.34,9.12-0.87,13.22,1.32c4.1,2.19,7.09,5.84,8.43,10.26l0.86,2.82v-3.38c0-9.57,7.79-17.36,17.36-17.36h71.94
	c9.57,0,17.36,7.79,17.36,17.36v69.09l0.29-0.31l25.2-71.7c3.18-9.03,13.1-13.79,22.13-10.62l67.87,23.86
	c9.03,3.18,13.79,13.1,10.62,22.13l-55.92,159.06l-0.1,0.4l-0.21,0.47l-47.21,134.28c1.24,0.87,1.81,2.48,1.29,3.98l-12.23,34.8
	c-2.83,8.04-10.41,13.08-18.49,13.08c-2.15,0-4.33-0.35-6.47-1.11l-16.4-5.77h-21.48l-34.51,10.45c-1.86,0.56-3.77,0.84-5.66,0.84
	c-3.18,0-6.34-0.79-9.24-2.34c-4.62-2.48-8-6.59-9.51-11.58l-10.69-35.31c-0.26-0.88-0.17-1.83,0.26-2.64
	c0.28-0.53,0.7-0.95,1.2-1.27l-67.85-224.12v0v-0.01l-22.48-74.23C303.91,432.5,304.38,427.81,306.57,423.71z"/>
<polygon class="st1" points="505.09,744.15 495.4,712.16 401.77,740.51 495.4,712.16 "/>
<polygon class="st1" points="402.18,733.14 390.54,694.7 402.18,733.14 "/>
<path class="st1" d="M427.21,780.93c-0.81,0.24-1.62,0.4-2.44,0.48C425.58,781.33,426.4,781.17,427.21,780.93z"/>
<path class="st1" d="M390.7,400.63c1.69,0,3.38,0.42,4.92,1.25C394.08,401.05,392.4,400.63,390.7,400.63z"/>
<path class="st1" d="M1900.18,829.74c145.8,0,264-118.2,264-264c0-145.8-118.19-264-264-264c-145.8,0-264,118.2-264,264
	C1636.19,711.54,1754.38,829.74,1900.18,829.74z M1958.63,673.91v31.85v5.96v11.88v24.98V750c0,5.36-4.36,9.71-9.71,9.71h-1.42
	h-7.51c-2.71,15.55-16.3,27.42-32.62,27.42c-16.31,0-29.9-11.86-32.62-27.42h-7.51h-1.42c-5.36,0-9.72-4.36-9.72-9.71v-1.42V723.6
	v-11.88v-5.96v-31.85c-45.24-20.23-74.34-64.97-74.34-114.7c0-69.26,56.35-125.6,125.6-125.6c69.26,0,125.61,56.35,125.61,125.6
	C2032.97,608.94,2003.88,653.68,1958.63,673.91z M2104.31,551.81c6.41,0,11.61,5.21,11.61,11.61c0,6.4-5.21,11.61-11.61,11.61
	h-50.12c-6.4,0-11.61-5.21-11.61-11.61c0-6.4,5.21-11.61,11.61-11.61H2104.31z M2025.6,474.61l31.62-19.35
	c4.51-2.76,10.42-1.34,13.18,3.17v0c2.76,4.51,1.33,10.42-3.17,13.18l-31.61,19.35c-1.56,0.95-3.28,1.41-4.99,1.41
	c-3.23,0-6.38-1.63-8.19-4.58C2019.68,483.28,2021.1,477.37,2025.6,474.61z M1961.67,421l21.64-30.09c1.49-2.07,3.7-3.44,6.24-3.86
	c2.53-0.41,5.07,0.18,7.14,1.67c4.29,3.09,5.27,9.09,2.18,13.38l-21.64,30.09c-1.87,2.6-4.82,3.98-7.79,3.98
	c-1.94,0-3.9-0.59-5.58-1.8C1959.56,431.29,1958.58,425.29,1961.67,421z M1895.75,356.4c0-6.4,5.21-11.61,11.61-11.61
	c6.4,0,11.61,5.21,11.61,11.61v50.12c0,6.4-5.21,11.61-11.61,11.61c-6.4,0-11.61-5.21-11.61-11.61V356.4z M1809.42,388.72
	c4.29-3.09,10.29-2.11,13.38,2.18l21.64,30.09c3.08,4.29,2.11,10.29-2.18,13.38c-1.69,1.21-3.64,1.8-5.58,1.8
	c-2.99,0-5.93-1.38-7.8-3.98l-21.64-30.09C1804.15,397.81,1805.13,391.81,1809.42,388.72z M1741.14,456.84
	c2.76-4.51,8.67-5.93,13.18-3.17l31.62,19.35c2.17,1.33,3.7,3.44,4.31,5.93c0.6,2.49,0.2,5.07-1.14,7.25
	c-1.33,2.18-3.44,3.71-5.93,4.31c-0.76,0.18-1.52,0.27-2.27,0.27c-1.74,0-3.46-0.48-4.98-1.41l-31.61-19.35
	c-2.18-1.33-3.71-3.44-4.31-5.93C1739.4,461.59,1739.81,459.01,1741.14,456.84z M1695.77,563.42c0-6.4,5.21-11.61,11.61-11.61h50.11
	c6.41,0,11.61,5.21,11.61,11.61c0,6.4-5.21,11.61-11.61,11.61h-50.11C1700.97,575.03,1695.77,569.82,1695.77,563.42z"/>
<path class="st1" d="M1955.01,643.64c-10.34,6.84-21.94,11.82-34.36,14.47C1933.07,655.45,1944.68,650.47,1955.01,643.64z"/>
<path class="st1" d="M1798.71,513.35c2.99-7.05,6.64-13.76,10.88-20.03C1805.35,499.59,1801.7,506.3,1798.71,513.35z"/>
<path class="st1" d="M1941.48,533.2c-3.57-3.35-7.64-6.19-12.08-8.38C1933.84,527.01,1937.9,529.85,1941.48,533.2z"/>
<path class="st1" d="M1950.6,544.7c-2.47-4.27-5.55-8.14-9.12-11.5C1945.05,536.56,1948.13,540.43,1950.6,544.7z"/>
<path class="st1" d="M1962.53,638.16c4.84-3.87,9.34-8.18,13.43-12.87C1971.86,629.99,1967.36,634.29,1962.53,638.16z"/>
<path class="st1" d="M1824.01,475.86c8.01-8.01,17.16-14.88,27.19-20.33C1841.17,460.98,1832.02,467.85,1824.01,475.86z"/>
<path class="st1" d="M1986.99,610.15c-3.24,5.39-6.93,10.46-11.03,15.14C1980.06,620.61,1983.75,615.54,1986.99,610.15z"/>
<path class="st1" d="M1191.82,1595.63c145.8,0,264-118.2,264-264c0-145.8-118.2-264-264-264c-145.8,0-264,118.2-264,264
	C927.82,1477.43,1046.02,1595.63,1191.82,1595.63z M995.23,1439.46v-241.85c0-7.2,5.86-13.06,13.06-13.06h355.13
	c7.2,0,13.06,5.86,13.06,13.06v241.85c0,7.2-5.86,13.06-13.06,13.06h-149.96v21.11c17.72,5.02,31.2,14.66,36.33,26.51h11.49
	c5.99,0,10.87,4.88,10.87,10.86v1.39c0,5.99-4.88,10.87-10.87,10.87h-151.67c-5.99,0-10.86-4.88-10.86-10.87V1511
	c0-5.99,4.87-10.86,10.86-10.86h11.49c5.13-11.85,18.61-21.5,36.33-26.51v-21.11h-149.15
	C1001.09,1452.52,995.23,1446.66,995.23,1439.46z"/>
<polygon class="st1" points="415.78,1473.16 415.78,1473.16 434.83,1406.76 "/>
<path class="st1" d="M468.71,1336.56c0,5.93,4.83,10.76,10.76,10.76c5.93,0,10.76-4.83,10.76-10.76c0-5.93-4.83-10.76-10.76-10.76
	C473.53,1325.79,468.71,1330.63,468.71,1336.56z"/>
<path class="st1" d="M435.72,1289.82c-4.06,5.21-8.57,10.44-13.57,15.58c-7.61,7.82-16.38,15.44-26.48,22.5
	c10.09-7.06,18.86-14.68,26.48-22.5C427.16,1300.26,431.67,1295.03,435.72,1289.82z"/>
<path class="st1" d="M466.79,1231c-1.5,4.64-3.31,9.62-5.48,14.85c-5.31,12.77-13.41,28.31-25.58,43.96
	c12.17-15.64,20.28-31.19,25.58-43.96C463.48,1240.62,465.28,1235.64,466.79,1231z"/>
<path class="st1" d="M408.59,1336.22c5.1,3.78,10.76,8.59,16.23,14.52C419.36,1344.81,413.7,1340,408.59,1336.22z"/>
<path class="st1" d="M395.67,1327.9c2.44,1.35,5.62,3.23,9.2,5.68C401.29,1331.13,398.12,1329.24,395.67,1327.9z"/>
<path class="st1" d="M468.82,1224.32c1.21-4.26,2.15-8.13,2.87-11.5C470.97,1216.19,470.03,1220.06,468.82,1224.32z"/>
<path class="st1" d="M473.7,1201.32c-0.32,2.49-0.92,6.44-2,11.5C472.78,1207.75,473.38,1203.81,473.7,1201.32z"/>
<path class="st1" d="M432.79,1360.47c-2.54-3.53-5.23-6.77-7.96-9.73C427.56,1353.7,430.25,1356.94,432.79,1360.47z"/>
<path class="st1" d="M471.52,1595.63c145.8,0,264-118.2,264-264c0-145.8-118.2-264-264-264c-145.8,0-264,118.2-264,264
	C207.52,1477.43,325.72,1595.63,471.52,1595.63z M407.9,1510.16h-13.01v-6.51h13.01V1510.16z M433.92,1510.16h-13.01v-6.51h13.01
	V1510.16z M459.95,1510.16h-13.01v-6.51h13.01V1510.16z M485.97,1510.16h-13.01v-6.51h13.01V1510.16z M512,1510.16h-13.01v-6.51H512
	V1510.16z M538.02,1510.16h-13.01v-6.51h13.01V1510.16z M564.05,1510.16h-13.01v-6.51h13.01V1510.16z M594.71,1152.69h29.76v29.76
	h-29.76V1152.69z M606.34,1461.24v-13.05h6.51v13.05H606.34z M612.85,1474.3v13.05h-6.51v-13.05H612.85z M606.34,1435.14v-13.05
	h6.51v13.05H606.34z M606.34,1409.03v-13.05h6.51v13.05H606.34z M606.34,1382.92v-13.05h6.51v13.05H606.34z M606.34,1356.82v-13.05
	h6.51v13.05H606.34z M606.34,1330.71v-13.05h6.51v13.05H606.34z M606.34,1304.6v-13.05h6.51v13.05H606.34z M606.34,1278.5v-13.06
	h6.51v13.06H606.34z M606.34,1252.39v-13.05h6.51v13.05H606.34z M606.34,1226.29v-13.05h6.51v13.05H606.34z M606.34,1200.18v-13.05
	h6.51v13.05H606.34z M594.71,1492.03h29.76v29.77h-29.76V1492.03z M577.06,1164.31h13.01v6.51h-13.01V1164.31z M577.06,1503.66
	h13.01v6.51h-13.01V1503.66z M551.03,1164.31h13.01v6.51h-13.01V1164.31z M525.01,1164.31h13.01v6.51h-13.01V1164.31z
	 M498.98,1164.31H512v6.51h-13.01V1164.31z M472.96,1164.31h13.01v6.51h-13.01V1164.31z M446.94,1164.31h13.01v6.51h-13.01V1164.31z
	 M420.91,1164.31h13.01v6.51h-13.01V1164.31z M394.88,1164.31h13.01v6.51h-13.01V1164.31z M387.49,1325.58
	c73.2-48.1,79.98-126.97,80.04-127.77c0.13-1.69,1.54-3.01,3.24-3.01h8.69h8.69c1.7,0,3.11,1.31,3.24,3.01
	c0.02,0.2,1.66,20.15,12.34,45.78c9.82,23.56,29.54,56.92,67.7,81.99c1,0.65,1.56,1.8,1.46,2.99c-0.1,1.19-0.84,2.23-1.93,2.71
	c-0.47,0.21-46.4,21.15-54.83,68.97h10.41c1.45,0,2.73,0.96,3.13,2.35l20.92,72.92c0.28,0.98,0.09,2.04-0.53,2.85
	c-0.62,0.82-1.58,1.3-2.6,1.3H411.46c-1.02,0-1.98-0.48-2.6-1.3c-0.62-0.82-0.81-1.87-0.53-2.85l20.92-72.92
	c0.4-1.39,1.68-2.35,3.13-2.35h10.41c-8.42-47.82-54.35-68.77-54.83-68.97c-1.09-0.48-1.82-1.53-1.92-2.71
	C385.94,1327.38,386.5,1326.24,387.49,1325.58z M368.86,1164.31h13.01v6.51h-13.01V1164.31z M368.86,1503.66h13.01v6.51h-13.01
	V1503.66z M334.46,1152.69h29.76v29.76h-29.76V1152.69z M346.08,1461.24v-13.05h6.51v13.05H346.08z M352.59,1474.3v13.05h-6.51
	v-13.05H352.59z M346.08,1435.14v-13.05h6.51v13.05H346.08z M346.08,1409.03v-13.06h6.51v13.06H346.08z M346.08,1382.92v-13.05h6.51
	v13.05H346.08z M346.08,1356.82v-13.05h6.51v13.05H346.08z M346.08,1330.71v-13.05h6.51v13.05H346.08z M346.08,1304.6v-13.05h6.51
	v13.05H346.08z M346.08,1278.5v-13.05h6.51v13.05H346.08z M346.08,1252.39v-13.05h6.51v13.05H346.08z M346.08,1226.29v-13.05h6.51
	v13.05H346.08z M346.08,1200.18v-13.05h6.51v13.05H346.08z M334.46,1492.03h29.76v29.77h-29.76V1492.03z"/>
<path class="st1" d="M1959.51,1167.22l0.18,0.4c0.01,9,0.02,18,0.03,27c-0.01-9-0.02-18-0.03-27L1959.51,1167.22z"/>
<path class="st1" d="M1835.36,1175.69l-2.93,0.66L1835.36,1175.69z"/>
<polygon class="st1" points="1940.68,1137.08 1933,1150.42 1932.32,1151.6 1933,1150.42 "/>
<path class="st1" d="M1840.94,1206.58l0.25,0.03c1.98,8.88,3.97,17.77,5.95,26.66c-1.98-8.89-3.97-17.77-5.95-26.66L1840.94,1206.58
	z"/>
<path class="st1" d="M1900.18,1595.63c145.8,0,264-118.2,264-264c0-145.8-118.19-264-264-264c-145.8,0-264,118.2-264,264
	C1636.19,1477.43,1754.38,1595.63,1900.18,1595.63z M1792.82,1279.22c0-5,4.06-9.06,9.06-9.06h15.46l-15.3-68.49l-0.01-0.02
	l-0.07-0.7l0.02-0.22l0.09-0.53l0.03-0.14l14.69-46.86c0.33-1.06,1.21-1.87,2.29-2.11c1.08-0.24,2.22,0.11,2.98,0.93l16.61,18.07
	l16.62,18.08l0.07,0.1l0.32,0.46l0.1,0.17l0.24,0.67l0.01,0.03l9.3,41.62l-0.61-42.9l0.01-0.1l0.08-0.62l0.05-0.21l0.21-0.51
	l0.05-0.12l23.16-41.47c0.54-0.97,1.56-1.58,2.68-1.6c1.12-0.03,2.15,0.57,2.72,1.52l24.33,40.79l0.05,0.11l0.23,0.52l-0.23-0.52
	l0.23,0.52l0.06,0.19l0.09,0.63l0.02,0.1l1.18,82.6h4.28l-0.14-115.43v-0.01l0.1-0.73l0.05-0.19l0.22-0.53l0.04-0.11l11.96-20.76
	v-0.01h0.01l0.03-0.05l11.98-20.82c0.56-0.96,1.58-1.56,2.7-1.56s2.15,0.59,2.7,1.55l12.04,20.79l12.03,20.79l0.05,0.13l0.21,0.5
	l0.07,0.21l0.09,0.71v0.01l0.14,115.49h22.73c5,0,9.06,4.06,9.06,9.06v19.39c0,4.99-4.06,9.06-9.06,9.06h-6.01l-17.08,222.91
	l-0.02,0.28l-0.2,2.63l-1.06,0.17c-2.39,2.63-8.66,4.74-23.34,6.5c-13.87,1.67-32.27,2.58-51.81,2.58
	c-19.54,0-37.94-0.92-51.81-2.58c-14.68-1.76-20.95-3.87-23.34-6.5l-1.06-0.17l-0.21-2.62l-0.02-0.29v-0.02l-17.08-222.89h-6.01
	c-5,0-9.06-4.06-9.06-9.06V1279.22z"/>
<path class="st2" d="M517.37,720.66v4.24l13.66,4.8l13.36-38.01l-29.55-10.39v36.03C516.3,717.74,517.37,719.07,517.37,720.66z"/>
<polygon class="st3" points="577.21,598.34 514.84,576.42 514.84,673.94 546.69,685.14 "/>
<polygon class="st4" points="607.53,512.06 520.02,481.3 514.84,496.01 514.84,569.06 579.51,591.79 "/>
<path class="st5" d="M622.04,446.38c2.8-7.95-1.42-16.75-9.37-19.54l-65.15-22.9l-0.2-0.05l-0.43,0.97l-24.57,69.9l79.88,28.08
	L622.04,446.38z"/>
<path class="st1" d="M612.67,426.84c7.95,2.79,12.17,11.59,9.37,19.54l-19.84,56.45l7.64,2.69l24.57-69.9
	c0.95-2.71,0.71-5.55-0.44-7.96c-0.58-1.2-1.38-2.3-2.39-3.21c-1-0.91-2.19-1.64-3.55-2.12l-67.87-23.86
	c-1.14-0.4-2.3-0.59-3.44-0.59c-2.97,0-5.79,1.29-7.75,3.49c-0.66,0.74-1.21,1.57-1.65,2.5l0.2,0.05L612.67,426.84z"/>
<path class="st6" d="M518.57,765.13l10.15-28.89l-11.35-3.99v25.29c0,5.62-2.39,10.67-6.19,14.25
	C514.5,770.99,517.36,768.58,518.57,765.13z"/>
<path class="st7" d="M497.65,704.38l1.11,0.16c0.71,0.22,1.33,0.66,1.77,1.26l0.51,1.03l3.14,10.36h3.72V676.9h-18.56L497.65,704.38
	z"/>
<polygon class="st8" points="487.23,669.96 507.9,669.96 507.9,577.95 459.38,577.95 "/>
<polygon class="st9" points="457.28,571 507.9,571 507.9,486.5 431.69,486.5 "/>
<path class="st10" d="M415.13,431.78L415.13,431.78l14.46,47.77h70.09v-62.3c0-8.43-6.9-15.33-15.33-15.33h-68.59
	c-0.4,1.11-0.63,2.3-0.63,3.55V431.78z"/>
<path class="st11" d="M499.69,417.25v62.3h8.21v-74.09c0-0.72-0.07-1.42-0.21-2.1c-0.28-1.35-0.82-2.61-1.57-3.72
	c-1.12-1.66-2.72-2.98-4.58-3.78c-1.24-0.53-2.61-0.82-4.05-0.82h-71.94c-4.5,0-8.33,2.87-9.78,6.87h68.59
	C492.79,401.92,499.69,408.82,499.69,417.25z"/>
<polygon class="st12" points="507.9,729.48 507.9,724.13 506.28,724.13 "/>
<path class="st13" d="M327.72,511.15L327.72,511.15L327.72,511.15l67.85,224.13c-0.49,0.32-0.92,0.74-1.2,1.27
	c-0.44,0.81-0.53,1.76-0.26,2.64l10.69,35.31c1.51,4.99,4.89,9.1,9.51,11.58c2.9,1.55,6.06,2.34,9.24,2.34c1.9,0,3.8-0.28,5.66-0.84
	l34.51-10.45h21.48l16.4,5.77c2.14,0.75,4.33,1.11,6.47,1.11c8.08,0,15.66-5.04,18.49-13.08l12.23-34.8
	c0.53-1.5-0.05-3.11-1.29-3.98l47.21-134.28l0.21-0.47l0.1-0.4l55.92-159.06c3.18-9.03-1.59-18.96-10.62-22.13l-67.87-23.86
	c-9.03-3.18-18.96,1.59-22.13,10.62l-25.2,71.7l-0.29,0.31v-69.09c0-9.57-7.79-17.36-17.36-17.36h-71.94
	c-9.57,0-17.36,7.79-17.36,17.36v3.38l-0.86-2.82c-1.34-4.42-4.33-8.06-8.43-10.26c-4.1-2.19-8.79-2.66-13.22-1.32l-68.85,20.85
	c-4.42,1.34-8.07,4.33-10.26,8.43c-2.19,4.1-2.66,8.79-1.32,13.21L327.72,511.15z M546.89,404.85l0.43-0.97
	c0.44-0.93,0.99-1.76,1.65-2.5c1.96-2.2,4.79-3.49,7.75-3.49c1.14,0,2.3,0.19,3.44,0.59l67.87,23.86c1.36,0.48,2.55,1.21,3.55,2.12
	c1,0.91,1.81,2,2.39,3.21c1.16,2.41,1.39,5.25,0.44,7.96l-24.57,69.9l-7.64-2.69l-79.88-28.08L546.89,404.85z M514.84,496.01
	l5.17-14.71l87.52,30.77l-28.03,79.72l-64.67-22.73V496.01z M514.84,576.42l62.36,21.92l-30.51,86.8l-31.85-11.2V576.42z
	 M514.84,681.3l29.55,10.39l-13.36,38.01l-13.66-4.8v-4.24c0-1.59-1.07-2.91-2.53-3.33V681.3z M517.37,757.55v-25.29l11.35,3.99
	l-10.15,28.89c-1.21,3.45-4.07,5.86-7.39,6.66C514.98,768.22,517.37,763.16,517.37,757.55z M335.37,512.47l88.79-26.88l24.52,80.99
	l-88.79,26.88L335.37,512.47z M361.91,600.1l88.79-26.88l26.63,87.96l-88.79,26.88L361.91,600.1z M390.54,694.7l88.79-26.88
	l11.64,38.44l-88.79,26.88h0L390.54,694.7z M502.79,755.79c-1.54,1.89-3.63,3.36-6.13,4.11l-69.45,21.03
	c-0.81,0.24-1.62,0.4-2.44,0.48c-2.46,0.24-4.94-0.26-7.17-1.45c-2.99-1.6-5.17-4.25-6.14-7.46l-9.68-31.99l93.64-28.35l9.69,31.99
	c0.25,0.83,0.41,1.67,0.49,2.51C505.89,750,504.83,753.27,502.79,755.79z M507.9,729.48l-1.62-5.35h1.62V729.48z M507.9,717.19
	h-3.72l-3.14-10.36l-0.51-1.03c-0.44-0.61-1.07-1.05-1.77-1.26l-1.11-0.16l-8.32-27.48h18.56V717.19z M507.9,669.96h-20.67
	l-27.85-92.01h48.52V669.96z M507.9,571h-50.62l-25.58-84.5h76.21V571z M425.54,395.05h71.94c1.44,0,2.81,0.29,4.05,0.82
	c1.87,0.79,3.46,2.11,4.58,3.78c0.75,1.11,1.29,2.37,1.57,3.72c0.14,0.68,0.21,1.38,0.21,2.1v74.09h-8.21h-70.09l-14.46-47.77
	v-26.31c0-1.25,0.23-2.44,0.63-3.55C417.22,397.92,421.05,395.05,425.54,395.05z M311.5,430.88c0.14-1.34,0.54-2.66,1.2-3.89
	c1.32-2.46,3.5-4.26,6.15-5.06l68.86-20.85c0.99-0.3,2-0.45,3-0.45c1.69,0,3.38,0.42,4.92,1.25c2.46,1.32,4.26,3.5,5.06,6.15
	l21.47,70.91l-12.93,3.91l-75.86,22.97l-20.38-67.3l-1.09-3.61C311.49,433.59,311.37,432.22,311.5,430.88z"/>
<rect x="394.37" y="680.4" transform="matrix(0.9571 -0.2898 0.2898 0.9571 -184.0625 157.7656)" class="st14" width="92.77" height="40.16"/>
<rect x="345.64" y="497.21" transform="matrix(0.9571 -0.2898 0.2898 0.9571 -139.5105 136.7361)" class="st15" width="92.77" height="84.62"/>
<rect x="373.23" y="584.69" transform="matrix(0.9571 -0.2898 0.2898 0.9571 -164.7375 148.6485)" class="st15" width="92.77" height="91.9"/>
<path class="st16" d="M374.18,420l-61.19,18.52l20.38,67.3l75.86-22.97l-15.93-52.63C390.85,422.16,382.24,417.55,374.18,420z"/>
<path class="st14" d="M312.99,438.52L374.18,420c8.07-2.44,16.67,2.16,19.11,10.23l15.93,52.63l12.93-3.91l-21.47-70.91
	c-0.8-2.65-2.6-4.83-5.06-6.15c-1.54-0.83-3.23-1.25-4.92-1.25c-1,0-2.01,0.15-3,0.45l-68.86,20.85c-2.65,0.8-4.83,2.6-6.15,5.06
	c-0.66,1.23-1.06,2.55-1.2,3.89c-0.13,1.34,0,2.71,0.4,4.03L312.99,438.52z"/>
<path class="st6" d="M495.4,712.16l-93.64,28.35l9.68,31.99c0.97,3.21,3.15,5.86,6.14,7.46c2.24,1.2,4.72,1.69,7.17,1.45
	c0.82-0.08,1.63-0.24,2.44-0.48l69.45-21.03c2.5-0.76,4.59-2.22,6.13-4.11c2.05-2.52,3.1-5.79,2.79-9.13
	c-0.08-0.84-0.24-1.68-0.49-2.51L495.4,712.16z M488.82,757.38c-7.03,0-12.75-5.72-12.75-12.75c0-7.03,5.72-12.75,12.75-12.75
	c7.03,0,12.75,5.72,12.75,12.75C501.58,751.66,495.86,757.38,488.82,757.38z"/>
<path class="st17" d="M488.82,738.82c-3.2,0-5.81,2.61-5.81,5.81c0,3.2,2.6,5.81,5.81,5.81c3.2,0,5.81-2.6,5.81-5.81
	C494.63,741.43,492.03,738.82,488.82,738.82z"/>
<path class="st13" d="M488.82,731.88c-7.03,0-12.75,5.72-12.75,12.75c0,7.03,5.72,12.75,12.75,12.75c7.03,0,12.75-5.72,12.75-12.75
	C501.58,737.6,495.86,731.88,488.82,731.88z M488.82,750.44c-3.2,0-5.81-2.6-5.81-5.81c0-3.2,2.6-5.81,5.81-5.81
	c3.2,0,5.81,2.61,5.81,5.81C494.63,747.83,492.03,750.44,488.82,750.44z"/>
<polygon class="st18" points="1933.47,1270.16 1933.35,1157.84 1930.04,1157.84 1930.17,1270.16 "/>
<polygon class="st18" points="1971.98,1270.16 1971.85,1157.79 1970.72,1157.8 1968.55,1157.8 1968.68,1270.16 "/>
<rect x="1965.1" y="1157.8" transform="matrix(1 -1.161459e-03 1.161459e-03 1 -1.4087 2.2852)" class="st19" width="3.51" height="112.36"/>
<polygon class="st19" points="1937.41,1270.16 1937.41,1270.16 1937.28,1157.84 1933.35,1157.84 1933.47,1270.16 "/>
<polygon class="st20" points="1941.99,1150.41 1966.02,1150.38 1958.31,1137.06 1940.68,1137.08 1933,1150.42 "/>
<polygon class="st14" points="1969.56,1151.56 1961.16,1137.05 1958.31,1137.06 1966.02,1150.38 1941.99,1150.41 1933,1150.42 
	1932.32,1151.6 1950.94,1151.58 "/>
<path class="st14" d="M1942.01,1270.16c-0.01-8.17-0.02-16.34-0.03-24.51c-0.03-24.33-0.06-48.67-0.09-72.99
	c0-1.69,4.2-6.92,4.21-5.02c0.01,9,0.02,18,0.03,27c0.03,25.17,0.06,50.34,0.09,75.51h9.38c-0.01-8.18-0.02-16.35-0.03-24.52
	c-0.03-24.33-0.06-48.67-0.09-73c0-1.48,3.22-5.67,4.03-5.42l0.18,0.4c0.01,9,0.02,18,0.03,27c0.03,25.18,0.06,50.35,0.09,75.53
	h5.36l-0.12-112.35l-14.09,0.02l-13.67,0.02l0.13,112.32H1942.01z"/>
<polygon class="st8" points="1956.68,1130.21 1956.64,1130.15 1950.64,1119.78 1950.59,1119.86 1944.63,1130.22 "/>
<polygon class="st21" points="1956.68,1130.21 1944.63,1130.22 1944.27,1130.84 1957.56,1130.82 1950.9,1119.32 1950.64,1119.78 
	1956.64,1130.15 "/>
<polygon class="st13" points="1932.32,1151.6 1932.32,1151.6 1950.94,1151.58 "/>
<polygon class="st13" points="1938.87,1133.89 1936.2,1132.35 1936.18,1132.4 "/>
<polygon class="st13" points="1944.63,1130.22 1950.59,1119.86 1944.27,1130.84 "/>
<polygon class="st22" points="1865.91,1270.16 1865.79,1261.77 1850.65,1194 1847.29,1194.75 1864.13,1270.16 "/>
<polygon class="st22" points="1827.27,1270.16 1812.17,1202.6 1808.81,1203.35 1823.74,1270.16 "/>
<polygon class="st23" points="1831.39,1270.16 1816.1,1201.72 1812.17,1202.6 1827.27,1270.16 "/>
<polygon class="st23" points="1864.13,1270.16 1847.29,1194.75 1843.78,1195.54 1860.46,1270.16 "/>
<polygon class="st22" points="1843.13,1187.98 1832.44,1176.35 1814.85,1180.27 1810.12,1195.36 1819.17,1193.33 "/>
<polygon class="st24" points="1835.36,1175.69 1832.44,1176.35 1843.13,1187.98 1819.17,1193.33 1810.12,1195.36 1809.68,1196.77 
	1847.06,1188.41 "/>
<path class="st25" d="M1835.67,1270.16c-4.07-18.2-8.14-36.41-12.21-54.62c-0.45-2,4.03-6.59,4.18-5.91
	c1.99,8.89,3.97,17.77,5.96,26.66c2.52,11.29,5.04,22.58,7.57,33.87h8.73c-4.29-19.21-8.58-38.43-12.88-57.65
	c-0.11-0.5,0.08-1.16,0.44-1.86c0.36-0.7,0.88-1.44,1.42-2.1c0.54-0.65,1.1-1.23,1.54-1.6l0.53-0.38l0.25,0.03
	c1.98,8.88,3.97,17.77,5.95,26.66c2.75,12.29,5.5,24.59,8.25,36.89h5.07l-16.67-74.62l-14.05,3.14l-13.63,3.04l15.29,68.43H1835.67z
	"/>
<polygon class="st25" points="1821.14,1160.22 1817,1173.4 1830.49,1170.39 "/>
<polygon class="st13" points="1809.68,1196.77 1809.68,1196.77 1847.06,1188.41 "/>
<polygon class="st26" points="1913.41,1270.16 1912.28,1190.76 1909.05,1190.81 1910.18,1270.16 "/>
<polygon class="st26" points="1875.38,1270.16 1874.26,1191.3 1871.02,1191.35 1872.15,1270.16 "/>
<polygon class="st27" points="1910.18,1270.16 1909.05,1190.81 1905.58,1190.86 1906.71,1270.16 "/>
<polygon class="st27" points="1879.27,1270.16 1878.15,1191.25 1874.26,1191.3 1875.38,1270.16 "/>
<polygon class="st27" points="1906.46,1183.48 1898.69,1170.45 1881.26,1170.69 1873.86,1183.94 1882.71,1183.81 "/>
<polygon class="st26" points="1909.91,1184.56 1901.47,1170.4 1898.69,1170.45 1906.46,1183.48 1882.71,1183.81 1873.86,1183.94 
	1873.22,1185.08 1889.32,1184.85 "/>
<path class="st28" d="M1883.77,1270.16c-0.31-21.45-0.61-42.9-0.92-64.35c0-0.42,0.26-1.06,0.65-1.76c1.17-2.1,3.54-4.7,3.56-3.25
	c0.13,8.8,0.25,17.6,0.38,26.4c0.2,14.32,0.41,28.65,0.61,42.97h9.16c-0.31-21.52-0.61-43.03-0.92-64.54
	c-0.03-1.68,4.17-6.94,4.2-5.01c0.12,8.8,0.25,17.6,0.38,26.4c0.21,14.39,0.41,28.77,0.62,43.16h5.24l-1.13-79.3l-27.43,0.39
	l1.12,78.91H1883.77z"/>
<polygon class="st28" points="1891.11,1153.05 1884.77,1164.41 1897.78,1164.22 "/>
<polyline class="st13" points="1918.31,1186.64 1918.08,1186.12 1918.31,1186.64 "/>
<path class="st13" d="M1897.78,1164.22l-6.67-11.17L1897.78,1164.22z"/>
<path class="st29" d="M1843.31,1357.82c0,64.57,50.21,116.92,112.16,116.92c6.58,0,13.02-0.6,19.29-1.74l12.67-165.34h-133.3
	C1847.19,1322.86,1843.31,1339.86,1843.31,1357.82z M1931.48,1311.9c22.9,0,41.46,22.71,41.46,50.72
	c0,28.02-18.56,50.73-41.46,50.73c-22.9,0-41.46-22.71-41.46-50.73C1890.01,1334.61,1908.58,1311.9,1931.48,1311.9z"/>
<path class="st30" d="M1843.31,1357.82c0-17.95,3.88-34.95,10.82-50.15h-38.72l16.82,219.4l0.19,0.03l0.03,1.93
	c5.05,2.73,30.48,6.23,68.97,6.23c38.49,0,63.92-3.5,68.97-6.23l0.03-1.93l0.2-0.03l4.15-54.06c-6.27,1.13-12.71,1.74-19.29,1.74
	C1893.52,1474.74,1843.31,1422.39,1843.31,1357.82z"/>
<path class="st31" d="M1931.48,1413.36c22.9,0,41.46-22.71,41.46-50.73c0-28.01-18.56-50.72-41.46-50.72
	c-22.9,0-41.46,22.71-41.46,50.72C1890.01,1390.64,1908.58,1413.36,1931.48,1413.36z"/>
<path class="st31" d="M1801.89,1300.18h199.06l1.11-0.47l0.47-1.11v-19.39l-0.47-1.11l-1.11-0.47h-199.06
	c-0.86,0-1.58,0.72-1.58,1.57v19.39C1800.31,1299.46,1801.03,1300.18,1801.89,1300.18z"/>
<path class="st13" d="M1801.89,1307.67h6.01l17.08,222.89v0.02l0.02,0.29l0.21,2.62l1.06,0.17c2.39,2.63,8.66,4.74,23.34,6.5
	c13.87,1.67,32.27,2.58,51.81,2.58c19.54,0,37.94-0.92,51.81-2.58c14.68-1.76,20.95-3.87,23.34-6.5l1.06-0.17l0.2-2.63l0.02-0.28
	l17.08-222.91h6.01c5,0,9.06-4.06,9.06-9.06v-19.39c0-5-4.06-9.06-9.06-9.06h-22.73l-0.14-115.49v-0.01l-0.09-0.71l-0.07-0.21
	l-0.21-0.5l-0.05-0.13l-12.03-20.79l-12.04-20.79c-0.56-0.96-1.59-1.55-2.7-1.55s-2.15,0.59-2.7,1.56l-11.98,20.82l2.67,1.54
	l-2.7-1.49h-0.01v0.01l-11.96,20.76l-0.04,0.11l-0.22,0.53l-0.05,0.19l-0.1,0.73v0.01l0.14,115.43h-4.28l-1.18-82.6l-0.02-0.1
	l-0.09-0.63l-0.06-0.19l-0.23-0.52l-0.05-0.11l-24.33-40.79c-0.57-0.95-1.6-1.55-2.72-1.52c-1.12,0.02-2.14,0.63-2.68,1.6
	l-23.16,41.47l-0.05,0.12l-0.21,0.51l-0.05,0.21l-0.08,0.62l-0.01,0.1l0.61,42.9l-9.3-41.62l-0.01-0.03l-0.24-0.67l-0.1-0.17
	l-0.32-0.46l-0.07-0.1l-16.62-18.08l-16.61-18.07c-0.76-0.82-1.9-1.18-2.98-0.93c-1.08,0.24-1.96,1.05-2.29,2.11l-14.69,46.86
	l-0.03,0.14l-0.09,0.53l-0.02,0.22l0.07,0.7l0.01,0.02l15.3,68.49h-15.46c-5,0-9.06,4.06-9.06,9.06v19.39
	C1792.82,1303.6,1796.89,1307.67,1801.89,1307.67z M1974.76,1473l-4.15,54.06l-0.2,0.03l-0.03,1.93
	c-5.05,2.73-30.48,6.23-68.97,6.23c-38.49,0-63.92-3.5-68.97-6.23l-0.03-1.93l-0.19-0.03l-16.82-219.4h38.72h133.3L1974.76,1473z
	 M1950.59,1119.86l0.05-0.08l0.26-0.46l6.66,11.5l-13.29,0.02L1950.59,1119.86z M1932.32,1151.6l0.68-1.18l7.68-13.33l17.63-0.02
	l2.85-0.01l8.4,14.51l-18.62,0.02L1932.32,1151.6L1932.32,1151.6z M1933.35,1157.84l3.93-0.01l13.67-0.02l14.09-0.02l3.51-0.01h2.17
	l1.13-0.01l0.13,112.36h-3.31h-3.51h-5.36c-0.03-25.18-0.05-50.35-0.09-75.53c-0.01-9-0.02-18-0.03-27l-0.18-0.4
	c-0.81-0.25-4.03,3.94-4.03,5.42c0.03,24.33,0.06,48.67,0.09,73c0.01,8.17,0.02,16.34,0.03,24.52h-9.38
	c-0.03-25.17-0.05-50.34-0.09-75.51c-0.01-9-0.02-18-0.03-27c-0.01-1.91-4.21,3.33-4.21,5.02c0.03,24.33,0.06,48.67,0.09,72.99
	c0.01,8.17,0.02,16.34,0.03,24.51h-4.6h-3.94h-3.3l-0.13-112.32H1933.35z M1891.11,1153.05l6.67,11.17l-13.01,0.19L1891.11,1153.05z
	 M1873.86,1183.94l7.4-13.25l17.43-0.25l2.78-0.04l8.44,14.16l-20.6,0.29l-16.1,0.23L1873.86,1183.94z M1874.26,1191.3l3.89-0.05
	l27.43-0.39l3.47-0.05l3.23-0.04l1.13,79.39h-3.24h-3.47h-5.24c-0.21-14.39-0.41-28.77-0.62-43.16c-0.12-8.8-0.25-17.6-0.38-26.4
	c-0.03-1.93-4.23,3.33-4.2,5.01c0.31,21.52,0.61,43.03,0.92,64.54h-9.16c-0.2-14.32-0.41-28.65-0.61-42.97
	c-0.12-8.8-0.25-17.6-0.38-26.4c-0.02-1.44-2.39,1.15-3.56,3.25c-0.39,0.7-0.65,1.34-0.65,1.76c0.31,21.45,0.62,42.9,0.92,64.35
	h-4.49h-3.89h-3.24l-1.12-78.8L1874.26,1191.3z M1821.14,1160.22l9.35,10.17l-13.48,3.01L1821.14,1160.22z M1809.68,1196.77
	l0.44-1.41l4.73-15.08l17.59-3.93l2.93-0.66l11.7,12.72L1809.68,1196.77z M1808.81,1203.35l3.36-0.75l3.93-0.88l13.63-3.04
	l14.05-3.14l3.5-0.78l3.37-0.75l15.14,67.77l0.12,8.39h-1.78h-3.68h-5.07c-2.75-12.3-5.5-24.6-8.25-36.89
	c-1.98-8.89-3.97-17.77-5.95-26.66l-0.25-0.03l-0.53,0.38c-0.44,0.37-1,0.94-1.54,1.6c-0.54,0.66-1.06,1.4-1.42,2.1
	c-0.36,0.7-0.55,1.37-0.44,1.86c4.29,19.22,8.58,38.44,12.88,57.65h-8.73c-2.52-11.29-5.04-22.58-7.57-33.87
	c-1.99-8.88-3.97-17.77-5.96-26.66c-0.15-0.68-4.62,3.91-4.18,5.91c4.07,18.2,8.14,36.41,12.21,54.62h-4.28h-4.12h-3.54
	L1808.81,1203.35z M1800.31,1279.22c0-0.85,0.72-1.57,1.58-1.57h199.06l1.11,0.47l0.47,1.11v19.39l-0.47,1.11l-1.11,0.47h-199.06
	c-0.86,0-1.58-0.72-1.58-1.57V1279.22z"/>
<polygon class="st13" points="450.84,1406.76 436.45,1456.92 538.49,1456.92 524.1,1406.76 512.34,1406.76 "/>
<polygon class="st32" points="450.84,1406.76 446.59,1406.76 434.83,1406.76 415.78,1473.16 543.15,1473.16 538.49,1456.92 
	436.45,1456.92 "/>
<path class="st1" d="M518.74,1372.48c4.88-9.39,10.97-17.23,17.2-23.67c10.39-10.73,21.17-17.52,27.32-20.91
	c-36.62-25.64-55.86-58.53-65.63-82.04c-8.69-20.93-11.55-37.89-12.4-44.54h-2.51v118.29c7.97,1.53,14.02,8.55,14.02,16.96
	c0,9.53-7.75,17.27-17.27,17.27c-9.52,0-17.27-7.75-17.27-17.27c0-8.41,6.05-15.43,14.02-16.96v-118.29h-2.51
	c-0.32,2.49-0.92,6.44-2,11.5c-0.72,3.37-1.66,7.25-2.87,11.5c-0.61,2.14-1.28,4.37-2.03,6.68c-1.5,4.64-3.31,9.62-5.48,14.85
	c-5.31,12.77-13.41,28.31-25.58,43.96c-4.06,5.21-8.57,10.44-13.57,15.58C436.3,1343.01,476.46,1371.08,518.74,1372.48z"/>
<path class="st33" d="M408.59,1336.22c5.1,3.78,10.76,8.59,16.23,14.52c2.73,2.96,5.42,6.2,7.96,9.73
	c7.64,10.58,14.01,23.76,16.61,39.79h60.13c1.27-7.84,3.45-14.99,6.23-21.48c0.93-2.17,1.92-4.26,2.97-6.29
	c-42.28-1.4-82.44-29.47-96.58-67.09c-7.61,7.82-16.38,15.44-26.48,22.5c2.44,1.35,5.62,3.23,9.2,5.68
	C406.07,1334.4,407.32,1335.27,408.59,1336.22z"/>
<path class="st13" d="M387.96,1331.28c0.48,0.21,46.41,21.15,54.83,68.97h-10.41c-1.45,0-2.73,0.96-3.13,2.35l-20.92,72.92
	c-0.28,0.98-0.08,2.04,0.53,2.85c0.62,0.82,1.58,1.3,2.6,1.3h136.01c1.02,0,1.98-0.48,2.6-1.3c0.62-0.82,0.81-1.87,0.53-2.85
	l-20.92-72.92c-0.4-1.39-1.68-2.35-3.13-2.35h-10.41c8.42-47.82,54.35-68.77,54.83-68.97c1.09-0.48,1.83-1.53,1.93-2.71
	c0.1-1.19-0.46-2.33-1.46-2.99c-38.16-25.07-57.88-58.43-67.7-81.99c-10.68-25.63-12.32-45.58-12.34-45.78
	c-0.13-1.7-1.54-3.01-3.24-3.01h-8.69h-8.69c-1.7,0-3.12,1.31-3.24,3.01c-0.06,0.8-6.84,79.67-80.04,127.77
	c-0.99,0.65-1.55,1.8-1.45,2.99C386.13,1329.75,386.87,1330.79,387.96,1331.28z M524.1,1406.76l14.39,50.16l4.66,16.24H415.78
	l19.05-66.4h11.75h4.25h61.5H524.1z M490.23,1336.56c0,5.93-4.83,10.76-10.76,10.76c-5.93,0-10.76-4.83-10.76-10.76
	c0-5.93,4.83-10.76,10.76-10.76C485.4,1325.79,490.23,1330.63,490.23,1336.56z M422.15,1305.39c5.01-5.14,9.52-10.37,13.57-15.58
	c12.17-15.64,20.28-31.19,25.58-43.96c2.17-5.23,3.98-10.22,5.48-14.85c0.75-2.32,1.43-4.55,2.03-6.68
	c1.21-4.26,2.15-8.13,2.87-11.5c1.08-5.06,1.69-9,2-11.5h2.51v118.29c-7.97,1.53-14.02,8.55-14.02,16.96
	c0,9.53,7.75,17.27,17.27,17.27c9.52,0,17.27-7.75,17.27-17.27c0-8.41-6.05-15.43-14.02-16.96v-118.29h2.51
	c0.85,6.66,3.7,23.61,12.4,44.54c9.77,23.51,29.01,56.4,65.63,82.04c-6.16,3.39-16.93,10.18-27.32,20.91
	c-6.23,6.44-12.33,14.29-17.2,23.67c-1.05,2.03-2.05,4.12-2.97,6.29c-2.78,6.5-4.96,13.65-6.23,21.48H449.4
	c-2.6-16.03-8.97-29.2-16.61-39.79c-2.54-3.53-5.23-6.77-7.96-9.73c-5.47-5.93-11.13-10.74-16.23-14.52
	c-1.28-0.95-2.52-1.83-3.71-2.64c-3.59-2.45-6.76-4.34-9.2-5.68C405.77,1320.83,414.54,1313.22,422.15,1305.39z"/>
<rect x="472.96" y="1503.66" class="st13" width="13.01" height="6.51"/>
<rect x="394.88" y="1503.66" class="st13" width="13.01" height="6.51"/>
<rect x="525.01" y="1503.66" class="st13" width="13.01" height="6.51"/>
<rect x="420.91" y="1503.66" class="st13" width="13.01" height="6.51"/>
<rect x="446.94" y="1503.66" class="st13" width="13.01" height="6.51"/>
<rect x="577.06" y="1503.66" class="st13" width="13.01" height="6.51"/>
<rect x="551.03" y="1503.66" class="st13" width="13.01" height="6.51"/>
<rect x="498.98" y="1503.66" class="st13" width="13.01" height="6.51"/>
<rect x="368.86" y="1503.66" class="st13" width="13.01" height="6.51"/>
<rect x="346.08" y="1317.66" class="st13" width="6.51" height="13.05"/>
<rect x="346.08" y="1291.55" class="st13" width="6.51" height="13.05"/>
<rect x="346.08" y="1265.45" class="st13" width="6.51" height="13.05"/>
<rect x="346.08" y="1343.76" class="st13" width="6.51" height="13.05"/>
<rect x="346.08" y="1239.34" class="st13" width="6.51" height="13.05"/>
<rect x="346.08" y="1369.87" class="st13" width="6.51" height="13.05"/>
<rect x="346.08" y="1448.19" class="st13" width="6.51" height="13.05"/>
<rect x="346.08" y="1474.3" class="st13" width="6.51" height="13.05"/>
<rect x="346.08" y="1213.24" class="st13" width="6.51" height="13.05"/>
<rect x="346.08" y="1395.98" class="st13" width="6.51" height="13.06"/>
<rect x="346.08" y="1422.08" class="st13" width="6.51" height="13.05"/>
<rect x="346.08" y="1187.13" class="st13" width="6.51" height="13.05"/>
<rect x="577.06" y="1164.31" class="st13" width="13.01" height="6.51"/>
<rect x="368.86" y="1164.31" class="st13" width="13.01" height="6.51"/>
<rect x="551.03" y="1164.31" class="st13" width="13.01" height="6.51"/>
<rect x="394.88" y="1164.31" class="st13" width="13.01" height="6.51"/>
<rect x="420.91" y="1164.31" class="st13" width="13.01" height="6.51"/>
<rect x="446.94" y="1164.31" class="st13" width="13.01" height="6.51"/>
<rect x="472.96" y="1164.31" class="st13" width="13.01" height="6.51"/>
<rect x="498.98" y="1164.31" class="st13" width="13.01" height="6.51"/>
<rect x="525.01" y="1164.31" class="st13" width="13.01" height="6.51"/>
<rect x="606.34" y="1448.19" class="st13" width="6.51" height="13.05"/>
<rect x="606.34" y="1474.3" class="st13" width="6.51" height="13.05"/>
<rect x="606.34" y="1343.76" class="st13" width="6.51" height="13.05"/>
<rect x="606.34" y="1239.34" class="st13" width="6.51" height="13.05"/>
<rect x="606.34" y="1291.55" class="st13" width="6.51" height="13.05"/>
<rect x="606.34" y="1187.13" class="st13" width="6.51" height="13.05"/>
<rect x="606.34" y="1265.44" class="st13" width="6.51" height="13.06"/>
<rect x="606.34" y="1422.08" class="st13" width="6.51" height="13.05"/>
<rect x="606.34" y="1213.24" class="st13" width="6.51" height="13.05"/>
<rect x="606.34" y="1395.98" class="st13" width="6.51" height="13.05"/>
<rect x="606.34" y="1369.87" class="st13" width="6.51" height="13.05"/>
<rect x="606.34" y="1317.66" class="st13" width="6.51" height="13.05"/>
<path class="st13" d="M364.22,1152.69h-29.76v29.76h29.76V1152.69z M357.13,1175.35h-15.58v-15.57h15.58V1175.35z"/>
<path class="st13" d="M624.48,1152.69h-29.76v29.76h29.76V1152.69z M617.38,1175.35H601.8v-15.57h15.58V1175.35z"/>
<path class="st13" d="M364.22,1492.03h-29.76v29.77h29.76V1492.03z M357.13,1514.7h-15.58v-15.57h15.58V1514.7z"/>
<path class="st13" d="M624.48,1492.03h-29.76v29.77h29.76V1492.03z M617.38,1514.7H601.8v-15.57h15.58V1514.7z"/>
<rect x="341.55" y="1159.78" class="st14" width="15.58" height="15.57"/>
<rect x="601.8" y="1159.78" class="st14" width="15.58" height="15.57"/>
<rect x="341.55" y="1499.12" class="st14" width="15.58" height="15.57"/>
<rect x="601.8" y="1499.12" class="st14" width="15.58" height="15.57"/>
<path class="st29" d="M1138.97,432.12v14.34h101.51v-19.09h-96.76C1141.1,427.37,1138.97,429.51,1138.97,432.12z"/>
<path class="st30" d="M1138.97,432.12c0-2.61,2.14-4.75,4.75-4.75h96.76v-9.26c0-0.72-0.6-1.32-1.32-1.32h-106.6
	c-0.71,0-1.32,0.61-1.32,1.32v28.35h7.73V432.12z"/>
<path class="st34" d="M1298.32,428.05c-2.32,0-4.33,1.54-5.21,3.73h31.81v-2.2l-0.03-0.53c-0.88-0.63-1.92-1.01-3.05-1.01H1298.32z"
	/>
<path class="st30" d="M1298.32,428.05h23.52c1.12,0,2.17,0.38,3.05,1.01c-0.26-2.11-2.04-3.76-4.17-3.76h-24.99
	c-2.3,0-4.21,1.93-4.21,4.28v2.2h1.59C1293.99,429.59,1296,428.05,1298.32,428.05z"/>
<polygon class="st35" points="1287.72,444.05 1287.72,446.46 1287.86,446.46 1287.86,443.02 "/>
<rect x="1324.49" y="439.78" class="st35" width="1.75" height="6.68"/>
<polygon class="st35" points="1291.99,439.78 1290.79,439.98 1290.79,446.46 1292.57,446.46 1292.57,439.78 "/>
<rect x="1300.36" y="439.78" class="st35" width="1.97" height="6.68"/>
<rect x="1319.72" y="439.78" class="st35" width="1.85" height="6.68"/>
<rect x="1295.49" y="439.78" class="st35" width="1.96" height="6.68"/>
<rect x="1314.95" y="439.78" class="st35" width="1.84" height="6.68"/>
<rect x="1310.15" y="439.78" class="st35" width="1.88" height="6.68"/>
<rect x="1305.25" y="439.78" class="st35" width="1.98" height="6.68"/>
<polygon class="st35" points="1329.17,439.78 1329.17,446.46 1332.53,446.46 1332.53,439.83 1332.07,439.78 "/>
<path class="st36" d="M1287.72,444.05l0.14-1.03v-4.6c0-0.58,0.47-1.05,1.06-1.05h0.82c0.58,0,1.05,0.47,1.05,1.05v1.55l1.21-0.2
	h0.57v-1.36c0-0.58,0.47-1.05,1.05-1.05h0.82c0.58,0,1.05,0.47,1.05,1.05v1.36h1.96v-1.36c0-0.58,0.47-1.05,1.05-1.05h0.82
	c0.58,0,1.05,0.47,1.05,1.05v1.36h1.97v-1.36c0-0.58,0.47-1.05,1.05-1.05h0.82c0.58,0,1.05,0.47,1.05,1.05v1.36h1.98v-1.36
	c0-0.58,0.47-1.05,1.05-1.05h0.82c0.58,0,1.05,0.47,1.05,1.05v1.36h1.88v-1.36c0-0.58,0.47-1.05,1.05-1.05h0.82
	c0.58,0,1.05,0.47,1.05,1.05v1.36h1.84v-1.36c0-0.58,0.47-1.05,1.05-1.05h0.82c0.58,0,1.05,0.47,1.05,1.05v1.36h1.85v-1.36
	c0-0.58,0.47-1.05,1.05-1.05h0.82c0.58,0,1.05,0.47,1.05,1.05v1.36h1.75v-1.36c0-0.58,0.47-1.05,1.05-1.05h0.82
	c0.58,0,1.05,0.47,1.05,1.05v1.36h2.91l0.46,0.04v-0.35c0-2.35-1.92-4.28-4.28-4.28h-40.08c-2.35,0-4.27,1.92-4.27,4.28v6.98h3.81
	V444.05z"/>
<path class="st37" d="M1290.79,438.43c0-0.58-0.47-1.05-1.05-1.05h-0.82c-0.58,0-1.06,0.47-1.06,1.05v4.6v3.44h2.93v-6.48V438.43z"
	/>
<path class="st37" d="M1295.49,438.43c0-0.58-0.47-1.05-1.05-1.05h-0.82c-0.58,0-1.05,0.47-1.05,1.05v1.36v6.68h2.92v-6.68V438.43z"
	/>
<path class="st37" d="M1300.36,438.43c0-0.58-0.47-1.05-1.05-1.05h-0.82c-0.58,0-1.05,0.47-1.05,1.05v1.36v6.68h2.92v-6.68V438.43z"
	/>
<path class="st37" d="M1305.25,438.43c0-0.58-0.47-1.05-1.05-1.05h-0.82c-0.58,0-1.05,0.47-1.05,1.05v1.36v6.68h2.92v-6.68V438.43z"
	/>
<path class="st37" d="M1310.15,438.43c0-0.58-0.47-1.05-1.05-1.05h-0.82c-0.58,0-1.05,0.47-1.05,1.05v1.36v6.68h2.92v-6.68V438.43z"
	/>
<path class="st37" d="M1314.95,438.43c0-0.58-0.47-1.05-1.05-1.05h-0.82c-0.58,0-1.05,0.47-1.05,1.05v1.36v6.68h2.92v-6.68V438.43z"
	/>
<path class="st37" d="M1319.72,438.43c0-0.58-0.47-1.05-1.05-1.05h-0.82c-0.58,0-1.05,0.47-1.05,1.05v1.36v6.68h2.92v-6.68V438.43z"
	/>
<path class="st37" d="M1324.49,438.43c0-0.58-0.47-1.05-1.05-1.05h-0.82c-0.58,0-1.05,0.47-1.05,1.05v1.36v6.68h2.93v-6.68V438.43z"
	/>
<path class="st37" d="M1329.17,438.43c0-0.58-0.47-1.05-1.05-1.05h-0.82c-0.58,0-1.05,0.47-1.05,1.05v1.36v6.68h2.93v-6.68V438.43z"
	/>
<path class="st29" d="M1041.58,688.05h305.39c4.42-3.23,7.31-8.43,7.31-14.29v-40.5h-86.51c-18.86,24.63-48.56,40.55-81.91,40.55
	c-33.35,0-63.05-15.92-81.91-40.55h-69.67v40.5C1034.27,679.61,1037.16,684.82,1041.58,688.05z"/>
<path class="st29" d="M1034.5,464.89l1.18-0.06c7.87,0,14.26,6.4,14.26,14.26s-6.39,14.26-14.26,14.26l-1.41-0.07v14.82h69.67
	c18.86-24.63,48.56-40.55,81.91-40.55c33.35,0,63.05,15.92,81.91,40.55h86.51v-40.49c0-5.86-2.89-11.06-7.31-14.29h-305.39
	C1037.86,456.03,1035.24,460.16,1034.5,464.89z M1281.24,466.32c0-2.67,2.17-4.84,4.84-4.84h46.54c2.67,0,4.84,2.17,4.84,4.84v24.51
	c0,2.67-2.17,4.85-4.84,4.85h-46.54c-2.67,0-4.84-2.17-4.84-4.85V466.32z"/>
<path class="st30" d="M1346.97,688.05h19.4c5.67,0,10.28-4.61,10.28-10.28v-44.51h-22.37v40.5
	C1354.28,679.61,1351.39,684.82,1346.97,688.05z"/>
<path class="st30" d="M1354.28,467.61v40.49h22.37v-44.51c0-5.67-4.61-10.28-10.28-10.28h-19.4
	C1351.39,456.54,1354.28,461.75,1354.28,467.61z"/>
<path class="st31" d="M1034.27,493.29c-7.2-0.71-12.85-6.8-12.85-14.19c0-7.46,5.77-13.6,13.08-14.2c0.74-4.74,3.36-8.86,7.08-11.58
	h-36.25c-5.67,0-10.27,4.61-10.27,10.28v44.51h39.21V493.29z"/>
<path class="st31" d="M1041.58,688.05c-4.42-3.23-7.31-8.43-7.31-14.29v-40.5h-39.21v44.51c0,5.67,4.61,10.28,10.27,10.28H1041.58z"
	/>
<path class="st35" d="M1272.59,514.95c10.37,16.08,16.39,35.21,16.39,55.72c0,20.51-6.02,39.65-16.39,55.73h81.48V514.95H1272.59z"
	/>
<path class="st35" d="M1099.12,626.41c-10.37-16.08-16.39-35.21-16.39-55.73c0-20.51,6.02-39.64,16.39-55.72h-64.84v111.45H1099.12z
	"/>
<rect x="1354.07" y="514.95" class="st38" width="22.57" height="111.45"/>
<rect x="995.06" y="514.95" class="st39" width="39.21" height="111.45"/>
<path class="st40" d="M1185.86,474.41c-53.09,0-96.28,43.19-96.28,96.27c0,53.09,43.19,96.28,96.28,96.28
	c53.08,0,96.27-43.19,96.27-96.28C1282.13,517.59,1238.94,474.41,1185.86,474.41z M1185.86,660.19c-49.44,0-89.51-40.08-89.51-89.51
	c0-49.43,40.07-89.5,89.51-89.5c49.43,0,89.5,40.07,89.5,89.5C1275.36,620.11,1235.28,660.19,1185.86,660.19z"/>
<path class="st19" d="M1286.08,492.25h40.45c0.33-0.78,0.53-1.67,0.53-2.64v-0.84c-1.33,0.76-2.87,1.19-4.52,1.19h-26.38
	c-4.71,0-8.64-3.52-9.15-8.2l-0.06-1v-4.4c0-5.07,4.13-9.2,9.21-9.2h26.38c0.76,0,1.5,0.1,2.21,0.28c0.82,0.2,1.6,0.51,2.31,0.91
	v-0.8c0-0.96-0.19-1.87-0.52-2.64h-40.46c-0.77,0-1.42,0.65-1.42,1.42v24.51C1284.67,491.6,1285.32,492.25,1286.08,492.25z"/>
<path class="st41" d="M1327.06,468.34c2.84,1.58,4.69,4.61,4.69,8.01v4.4c0,3.44-1.9,6.43-4.69,8.01v0.84c0,0.97-0.2,1.86-0.53,2.64
	h6.09c0.77,0,1.42-0.65,1.42-1.42v-24.51c0-0.78-0.64-1.42-1.42-1.42h-6.08c0.33,0.77,0.52,1.67,0.52,2.64V468.34z"/>
<path class="st42" d="M1314.34,481.84c5.67,0,10.29-4.64,10.29-10.3l-0.03-0.55l-0.69-0.23l-1.36-0.18h-26.38
	c-3.19,0-5.78,2.59-5.78,5.78v4.4l0.03,0.58l0.1,0.48l0.44,0.02H1314.34z M1296.16,472.15c1.56,0,2.84,1.27,2.84,2.84
	c0,1.56-1.28,2.83-2.84,2.83c-1.56,0-2.83-1.27-2.83-2.83C1293.32,473.42,1294.59,472.15,1296.16,472.15z"/>
<path class="st43" d="M1324.6,470.98l0.03,0.55c0,5.66-4.62,10.3-10.29,10.3h-23.37l-0.44-0.02c0.53,2.7,2.9,4.72,5.65,4.72h26.38
	c3.19,0,5.78-2.59,5.78-5.78v-4.4C1328.33,473.97,1326.79,471.83,1324.6,470.98z"/>
<path class="st1" d="M1296.16,477.82c1.56,0,2.84-1.27,2.84-2.83c0-1.57-1.28-2.84-2.84-2.84c-1.56,0-2.83,1.27-2.83,2.84
	C1293.32,476.55,1294.59,477.82,1296.16,477.82z"/>
<path class="st13" d="M1049.94,479.1c0-7.86-6.39-14.26-14.26-14.26l-1.18,0.06c-7.31,0.6-13.08,6.74-13.08,14.2
	c0,7.39,5.65,13.48,12.85,14.19l1.41,0.07C1043.55,493.36,1049.94,486.96,1049.94,479.1z M1034.43,487.93l-0.54-0.08l-0.42-0.11
	l-0.43-0.11l-0.49-0.18l-0.33-0.12l-0.53-0.26l-0.24-0.12l-0.58-0.35l-0.15-0.09l-0.6-0.45l-0.08-0.06l-0.6-0.54l-0.03-0.03
	c-1.61-1.59-2.61-3.8-2.65-6.24v0l-0.01-0.11c0-4.94,4-8.93,8.93-8.93c2.89,0,5.4,1.41,7.03,3.53l-0.01-0.11
	c0.42,0.54,0.78,1.13,1.07,1.75l0.07,0.14l0.19,0.47l0.11,0.31l0.12,0.41l0.1,0.41l0.08,0.37l0.08,0.51l0.04,0.3l0.04,0.84
	c0,4.94-4,8.93-8.93,8.93l-0.91-0.05L1034.43,487.93z"/>
<path class="st19" d="M1033.78,482.64c4.93,0,8.93-4,8.93-8.93v-0.01c-1.63-2.13-4.14-3.53-7.03-3.53c-4.93,0-8.93,4-8.93,8.93
	l0.01,0.11C1028.39,481.29,1030.93,482.64,1033.78,482.64z M1033.51,472.97c1.53,0,2.77,1.24,2.77,2.77c0,1.53-1.24,2.77-2.77,2.77
	c-1.53,0-2.77-1.24-2.77-2.77C1030.74,474.21,1031.98,472.97,1033.51,472.97z"/>
<path class="st19" d="M1029.4,485.45c-1.61-1.6-2.61-3.8-2.65-6.24C1026.79,481.65,1027.79,483.85,1029.4,485.45z"/>
<path class="st18" d="M1044.62,479.1l-0.04-0.84l-0.04-0.3l-0.08-0.51l-0.08-0.37l-0.1-0.41l-0.12-0.41l-0.11-0.31l-0.19-0.47
	l-0.07-0.14c-0.29-0.62-0.65-1.21-1.07-1.75l0.01,0.11v0.01c0,4.94-4,8.93-8.93,8.93c-2.85,0-5.39-1.35-7.03-3.43v0
	c0.03,2.44,1.04,4.64,2.65,6.24l0.03,0.03l0.6,0.54l0.08,0.06l0.6,0.45l0.15,0.09l0.58,0.35l0.24,0.12l0.53,0.26l0.33,0.12
	l0.49,0.18l0.43,0.11l0.42,0.11l0.54,0.08l0.34,0.05l0.91,0.05C1040.62,488.03,1044.62,484.03,1044.62,479.1z"/>
<path class="st44" d="M1185.86,481.17c-49.44,0-89.51,40.07-89.51,89.5c0,49.43,40.07,89.51,89.51,89.51
	c49.43,0,89.5-40.08,89.5-89.51C1275.36,521.25,1235.28,481.17,1185.86,481.17z M1185.86,651.63c-44.64,0-80.95-36.31-80.95-80.95
	c0-44.63,36.31-80.95,80.95-80.95c44.63,0,80.95,36.31,80.95,80.95C1266.8,615.32,1230.49,651.63,1185.86,651.63z"/>
<path class="st18" d="M1185.86,496.58c-40.86,0-74.1,33.24-74.1,74.1c0,40.86,33.24,74.1,74.1,74.1c40.85,0,74.09-33.24,74.09-74.1
	C1259.95,529.83,1226.71,496.58,1185.86,496.58z M1185.86,637.75c-37.05,0-67.08-30.03-67.08-67.07c0-37.04,30.03-67.07,67.08-67.07
	c37.04,0,67.07,30.03,67.07,67.07C1252.93,607.73,1222.9,637.75,1185.86,637.75z"/>
<path class="st19" d="M1237.44,567.03c-0.08-1.1-0.19-2.19-0.33-3.27c0.13,0.9,0.22,1.82,0.29,2.74L1237.44,567.03z"/>
<path class="st19" d="M1237.1,563.71c-0.32-2.32-0.78-4.58-1.39-6.8c0.62,2.27,1.04,4.61,1.36,6.98L1237.1,563.71z"/>
<path class="st19" d="M1234.29,552.55c0.52,1.38,0.99,2.79,1.39,4.22C1235.27,555.33,1234.8,553.93,1234.29,552.55z"/>
<path class="st19" d="M1232.46,548.29c0.59,1.23,1.15,2.48,1.65,3.76C1233.61,550.77,1233.06,549.52,1232.46,548.29z"/>
<path class="st19" d="M1136.03,556.77c0.4-1.43,0.87-2.84,1.39-4.22C1136.9,553.93,1136.43,555.33,1136.03,556.77z"/>
<path class="st19" d="M1134.6,563.76c-0.15,1.08-0.26,2.17-0.34,3.27l0.04-0.53C1134.38,565.58,1134.47,564.67,1134.6,563.76z"/>
<path class="st19" d="M1204.66,522.49c-5.84-2.29-12.17-3.59-18.8-3.59c-6.65,0-12.97,1.3-18.81,3.59
	c5.83-2.28,12.17-3.55,18.81-3.55C1192.49,518.95,1198.83,520.22,1204.66,522.49z"/>
<path class="st19" d="M1142.02,543.26c0.64-1.02,1.32-2.02,2.03-2.99C1143.33,541.24,1142.66,542.24,1142.02,543.26z"/>
<path class="st19" d="M1144.8,539.25c0.7-0.92,1.43-1.81,2.2-2.68C1146.23,537.45,1145.5,538.34,1144.8,539.25z"/>
<path class="st19" d="M1158.95,526.53c1.02-0.63,2.06-1.24,3.14-1.8C1161.01,525.29,1159.98,525.9,1158.95,526.53z"/>
<path class="st19" d="M1147.93,535.55c0.76-0.83,1.55-1.63,2.37-2.41C1149.49,533.92,1148.7,534.72,1147.93,535.55z"/>
<path class="st19" d="M1155.06,529.16c0.91-0.68,1.85-1.35,2.81-1.97C1156.9,527.81,1155.97,528.47,1155.06,529.16z"/>
<path class="st19" d="M1151.36,532.18c0.83-0.75,1.68-1.48,2.57-2.18C1153.05,530.7,1152.2,531.43,1151.36,532.18z"/>
<path class="st19" d="M1139.6,547.54c0.57-1.15,1.19-2.26,1.85-3.36C1140.8,545.28,1140.18,546.4,1139.6,547.54z"/>
<path class="st19" d="M1135.99,556.93c-0.61,2.21-1.08,4.47-1.39,6.79l0.03,0.19C1134.95,561.53,1135.37,559.19,1135.99,556.93z"/>
<path class="st19" d="M1137.6,552.05c0.5-1.28,1.05-2.54,1.64-3.77C1138.65,549.52,1138.1,550.77,1137.6,552.05z"/>
<path class="st19" d="M1230.25,544.18c0.65,1.09,1.28,2.21,1.85,3.36C1231.53,546.4,1230.91,545.28,1230.25,544.18z"/>
<path class="st19" d="M1224.71,536.58c0.76,0.87,1.49,1.76,2.19,2.68C1226.2,538.34,1225.47,537.44,1224.71,536.58z"/>
<path class="st19" d="M1221.4,533.14c0.82,0.77,1.6,1.58,2.37,2.4C1223.01,534.72,1222.22,533.92,1221.4,533.14z"/>
<path class="st19" d="M1227.66,540.27c0.71,0.97,1.39,1.97,2.03,3C1229.05,542.24,1228.38,541.24,1227.66,540.27z"/>
<path class="st19" d="M1205.16,522.68c1.22,0.49,2.4,1.05,3.57,1.63C1207.56,523.72,1206.38,523.17,1205.16,522.68z"/>
<path class="st19" d="M1217.78,530c0.88,0.69,1.73,1.42,2.56,2.17C1219.5,531.42,1218.66,530.69,1217.78,530z"/>
<path class="st19" d="M1162.97,524.3c1.17-0.58,2.36-1.14,3.58-1.63C1165.33,523.17,1164.14,523.72,1162.97,524.3z"/>
<path class="st19" d="M1213.83,527.18c0.97,0.62,1.9,1.29,2.82,1.98C1215.73,528.47,1214.8,527.81,1213.83,527.18z"/>
<path class="st19" d="M1209.62,524.73c1.08,0.56,2.12,1.17,3.15,1.8C1211.74,525.9,1210.7,525.29,1209.62,524.73z"/>
<path class="st19" d="M1237.58,570.68c0,28.57-23.16,51.73-51.73,51.73c-28.58,0-51.74-23.16-51.74-51.73
	c0-0.56,0.02-1.12,0.04-1.67c-0.02,0.56-0.09,1.11-0.09,1.67c0,28.55,23.23,51.78,51.78,51.78c28.54,0,51.77-23.22,51.77-51.78
	c0-0.56-0.07-1.11-0.08-1.67C1237.57,569.56,1237.58,570.12,1237.58,570.68z"/>
<path class="st19" d="M1185.86,503.61c-37.05,0-67.08,30.03-67.08,67.07c0,37.05,30.03,67.07,67.08,67.07
	c37.04,0,67.07-30.03,67.07-67.07C1252.93,533.64,1222.9,503.61,1185.86,503.61z M1185.86,629.31c-32.33,0-58.63-26.3-58.63-58.63
	c0-32.32,26.3-58.62,58.63-58.62c32.32,0,58.62,26.3,58.62,58.62C1244.48,603.01,1218.18,629.31,1185.86,629.31z"/>
<path class="st45" d="M1185.86,608.47c26.14,0,47.72-19.39,51.21-44.57c-0.32-2.38-0.74-4.71-1.36-6.98l-0.04-0.15
	c-0.4-1.43-0.87-2.84-1.39-4.22l-0.18-0.5c-0.5-1.28-1.05-2.53-1.65-3.76l-0.36-0.75c-0.57-1.14-1.2-2.26-1.85-3.36l-0.56-0.92
	c-0.64-1.02-1.32-2.02-2.03-3l-0.76-1.01c-0.71-0.92-1.44-1.81-2.19-2.68l-0.94-1.03c-0.77-0.82-1.55-1.63-2.37-2.4l-1.07-0.97
	c-0.83-0.75-1.68-1.48-2.56-2.17l-1.12-0.84c-0.92-0.68-1.85-1.35-2.82-1.98l-1.07-0.65c-1.03-0.63-2.07-1.24-3.15-1.8l-0.89-0.43
	c-1.17-0.58-2.35-1.14-3.57-1.63l-0.5-0.18c-5.83-2.28-12.17-3.55-18.8-3.55c-6.65,0-12.99,1.27-18.81,3.55l-0.49,0.18
	c-1.22,0.49-2.41,1.05-3.58,1.63l-0.89,0.43c-1.07,0.56-2.11,1.17-3.14,1.8l-1.08,0.66c-0.96,0.62-1.9,1.29-2.81,1.97l-1.13,0.84
	c-0.88,0.7-1.73,1.43-2.57,2.18l-1.06,0.96c-0.82,0.78-1.61,1.58-2.37,2.41l-0.94,1.03c-0.76,0.87-1.49,1.76-2.2,2.68l-0.76,1.02
	c-0.71,0.97-1.39,1.97-2.03,2.99l-0.57,0.93c-0.65,1.09-1.27,2.21-1.85,3.36l-0.36,0.74c-0.59,1.23-1.15,2.48-1.64,3.77l-0.18,0.5
	c-0.52,1.38-0.99,2.78-1.39,4.22l-0.04,0.16c-0.63,2.26-1.05,4.6-1.36,6.98C1138.13,589.08,1159.72,608.47,1185.86,608.47z
	 M1163.54,532.16c13.07-7.03,28.32-4.07,34.06,6.59c0.84,1.56,1.42,3.2,1.78,4.89c0.84-0.41,1.78-0.64,2.77-0.64
	c3.52,0,6.37,2.85,6.37,6.37c0,3.52-2.85,6.37-6.37,6.37c-1.32,0-2.55-0.41-3.58-1.1c-2.16,6.37-7.16,12.35-14.26,16.17
	c-13.07,7.03-28.32,4.07-34.06-6.59C1144.52,553.53,1150.47,539.19,1163.54,532.16z"/>
<path class="st46" d="M1134.21,568.13c1.54,27.19,24.07,48.76,51.64,48.76c27.57,0,50.1-21.57,51.64-48.76
	c0.04,0.85,0.09,1.69,0.09,2.55c0-0.56-0.02-1.12-0.04-1.67c-0.02-0.66-0.05-1.32-0.1-1.98l-0.04-0.53
	c-0.08-0.92-0.17-1.83-0.29-2.74l-0.01-0.05l-0.03,0.19c-3.5,25.17-25.08,44.57-51.21,44.57c-26.14,0-47.73-19.39-51.22-44.56
	l-0.03-0.19l-0.01,0.05c-0.13,0.91-0.22,1.82-0.29,2.74l-0.04,0.53c-0.04,0.65-0.08,1.31-0.1,1.97c-0.02,0.56-0.04,1.11-0.04,1.67
	C1134.12,569.82,1134.17,568.97,1134.21,568.13z"/>
<path class="st47" d="M1185.86,616.89c-27.57,0-50.1-21.57-51.64-48.76c-0.04,0.85-0.09,1.69-0.09,2.55
	c0,28.57,23.16,51.73,51.74,51.73c28.57,0,51.73-23.16,51.73-51.73c0-0.86-0.04-1.7-0.09-2.55
	C1235.95,595.31,1213.42,616.89,1185.86,616.89z"/>
<path class="st48" d="M1150.25,564.2c5.74,10.67,20.98,13.62,34.06,6.59c7.1-3.82,12.1-9.79,14.26-16.17
	c-1.68-1.14-2.79-3.08-2.79-5.26c0-2.52,1.47-4.69,3.59-5.73c-0.35-1.68-0.94-3.33-1.78-4.89c-5.74-10.67-20.98-13.62-34.06-6.59
	C1150.47,539.19,1144.52,553.53,1150.25,564.2z"/>
<path class="st1" d="M1195.78,549.36c0,2.19,1.11,4.12,2.79,5.26c1.02,0.7,2.26,1.1,3.58,1.1c3.52,0,6.37-2.85,6.37-6.37
	c0-3.52-2.85-6.37-6.37-6.37c-0.99,0-1.93,0.24-2.77,0.64C1197.25,544.67,1195.78,546.84,1195.78,549.36z"/>
<path class="st13" d="M1366.36,694.9c9.45,0,17.13-7.68,17.13-17.13v-44.51V508.1v-44.51c0-9.44-7.69-17.13-17.13-17.13h-30.41
	v-6.98c0-4.22-3.41-7.65-7.61-7.7v-2.2l-0.06-0.94c-0.47-3.86-3.73-6.77-7.57-6.77h-24.99c-4.21,0-7.63,3.46-7.63,7.71v2.2
	c-4.21,0.05-7.61,3.48-7.61,7.7v6.98h-33.15v-28.35c0-4.51-3.67-8.17-8.18-8.17h-106.6c-4.5,0-8.17,3.67-8.17,8.17v28.35h-119.04
	c-9.45,0-17.13,7.69-17.13,17.13v44.51v125.15v44.51c0,9.45,7.68,17.13,17.13,17.13H1366.36z M1376.64,626.41h-22.57h-81.48
	c10.37-16.08,16.39-35.21,16.39-55.73c0-20.51-6.02-39.64-16.39-55.72h81.48h22.57V626.41z M1185.86,666.96
	c-53.09,0-96.28-43.19-96.28-96.28c0-53.08,43.19-96.27,96.28-96.27c53.08,0,96.27,43.19,96.27,96.27
	C1282.13,623.77,1238.94,666.96,1185.86,666.96z M1291.52,429.58c0-2.35,1.9-4.28,4.21-4.28h24.99c2.14,0,3.91,1.64,4.17,3.76
	l0.03,0.53v2.2h-31.81h-1.59V429.58z M1283.91,439.48c0-2.35,1.92-4.28,4.27-4.28h40.08c2.35,0,4.28,1.92,4.28,4.28v0.35v6.63h-3.37
	h-2.93h-1.75h-2.93h-1.85h-2.92h-1.84h-2.92h-1.88h-2.92h-1.98h-2.92h-1.97h-2.92h-1.96h-2.92h-1.78h-2.93h-0.14h-3.81V439.48z
	 M1131.23,418.11c0-0.72,0.6-1.32,1.32-1.32h106.6c0.72,0,1.32,0.61,1.32,1.32v9.26v19.09h-101.51h-7.73V418.11z M995.06,463.59
	c0-5.67,4.61-10.28,10.27-10.28h36.25h305.39h19.4c5.67,0,10.28,4.61,10.28,10.28v44.51h-22.37h-86.51
	c-18.86-24.63-48.56-40.55-81.91-40.55c-33.35,0-63.05,15.92-81.91,40.55h-69.67h-39.21V463.59z M995.06,514.95h39.21h64.84
	c-10.37,16.08-16.39,35.21-16.39,55.72c0,20.51,6.02,39.65,16.39,55.73h-64.84h-39.21V514.95z M995.06,677.77v-44.51h39.21h69.67
	c18.86,24.63,48.56,40.55,81.91,40.55c33.35,0,63.05-15.92,81.91-40.55h86.51h22.37v44.51c0,5.67-4.61,10.28-10.28,10.28h-19.4
	h-305.39h-36.25C999.67,688.05,995.06,683.44,995.06,677.77z"/>
<path class="st13" d="M1185.86,489.73c-44.64,0-80.95,36.31-80.95,80.95c0,44.64,36.31,80.95,80.95,80.95
	c44.63,0,80.95-36.31,80.95-80.95C1266.8,526.04,1230.49,489.73,1185.86,489.73z M1185.86,644.78c-40.86,0-74.1-33.24-74.1-74.1
	c0-40.85,33.24-74.1,74.1-74.1c40.85,0,74.09,33.24,74.09,74.1C1259.95,611.54,1226.71,644.78,1185.86,644.78z"/>
<path class="st13" d="M1185.86,512.05c-32.33,0-58.63,26.3-58.63,58.62c0,32.33,26.3,58.63,58.63,58.63
	c32.32,0,58.62-26.3,58.62-58.63C1244.48,538.36,1218.18,512.05,1185.86,512.05z M1185.86,622.45c-28.55,0-51.78-23.22-51.78-51.78
	c0-0.56,0.07-1.11,0.09-1.67c0.02-0.66,0.05-1.32,0.1-1.97c0.08-1.1,0.19-2.19,0.34-3.27l0.01-0.05c0.31-2.31,0.78-4.58,1.39-6.79
	l0.04-0.16c0.4-1.43,0.87-2.84,1.39-4.22l0.18-0.5c0.5-1.28,1.05-2.53,1.64-3.77l0.36-0.74c0.57-1.15,1.19-2.26,1.85-3.36l0.57-0.93
	c0.64-1.02,1.31-2.02,2.03-2.99l0.76-1.02c0.7-0.92,1.43-1.81,2.2-2.68l0.94-1.03c0.77-0.83,1.55-1.63,2.37-2.41l1.06-0.96
	c0.83-0.75,1.68-1.48,2.57-2.18l1.13-0.84c0.91-0.68,1.85-1.35,2.81-1.97l1.08-0.66c1.03-0.63,2.06-1.24,3.14-1.8l0.89-0.43
	c1.17-0.58,2.36-1.14,3.58-1.63l0.49-0.18c5.84-2.29,12.17-3.59,18.81-3.59c6.63,0,12.96,1.3,18.8,3.59l0.5,0.18
	c1.22,0.49,2.4,1.05,3.57,1.63l0.89,0.43c1.08,0.56,2.12,1.17,3.15,1.8l1.07,0.65c0.97,0.63,1.9,1.29,2.82,1.98l1.12,0.84
	c0.88,0.69,1.73,1.42,2.56,2.17l1.07,0.97c0.82,0.77,1.6,1.58,2.37,2.4l0.94,1.03c0.76,0.87,1.49,1.76,2.19,2.68l0.76,1.01
	c0.71,0.97,1.39,1.97,2.03,3l0.56,0.92c0.66,1.09,1.27,2.21,1.85,3.36l0.36,0.75c0.59,1.23,1.14,2.48,1.65,3.76l0.18,0.5
	c0.52,1.38,0.99,2.79,1.39,4.22l0.04,0.15c0.61,2.21,1.07,4.48,1.39,6.8l0.01,0.05c0.15,1.08,0.26,2.17,0.33,3.27
	c0.05,0.66,0.08,1.32,0.1,1.98c0.02,0.56,0.08,1.11,0.08,1.67C1237.63,599.23,1214.4,622.45,1185.86,622.45z"/>
<path class="st13" d="M1286.08,495.67h46.54c2.67,0,4.84-2.17,4.84-4.85v-24.51c0-2.67-2.17-4.84-4.84-4.84h-46.54
	c-2.67,0-4.84,2.17-4.84,4.84v24.51C1281.24,493.5,1283.42,495.67,1286.08,495.67z M1284.67,466.32c0-0.77,0.65-1.42,1.42-1.42
	h40.46h6.08c0.78,0,1.42,0.63,1.42,1.42v24.51c0,0.77-0.65,1.42-1.42,1.42h-6.09h-40.45c-0.77,0-1.42-0.65-1.42-1.42V466.32z"/>
<path class="st13" d="M1331.75,480.75v-4.4c0-3.4-1.85-6.43-4.69-8.01c-0.71-0.4-1.49-0.71-2.31-0.91
	c-0.71-0.19-1.45-0.28-2.21-0.28h-26.38c-5.08,0-9.21,4.13-9.21,9.2v4.4l0.06,1c0.51,4.68,4.44,8.2,9.15,8.2h26.38
	c1.64,0,3.18-0.44,4.52-1.19C1329.86,487.18,1331.75,484.19,1331.75,480.75z M1328.33,480.75c0,3.19-2.59,5.78-5.78,5.78h-26.38
	c-2.75,0-5.11-2.02-5.65-4.72l-0.1-0.48l-0.03-0.58v-4.4c0-3.19,2.59-5.78,5.78-5.78h26.38l1.36,0.18l0.69,0.23
	c2.19,0.84,3.73,2.99,3.73,5.37V480.75z"/>
<path class="st1" d="M1033.51,478.5c1.53,0,2.77-1.24,2.77-2.77c0-1.53-1.24-2.77-2.77-2.77c-1.53,0-2.77,1.24-2.77,2.77
	C1030.74,477.27,1031.98,478.5,1033.51,478.5z"/>
<path class="st1" d="M1925.41,759.72h-42.84c0.14,0.6,0.28,1.21,0.46,1.8c5.27,5.09,12.42,8.23,20.32,8.23
	C1912.16,769.74,1920.04,765.85,1925.41,759.72z"/>
<path class="st49" d="M1903.36,769.74c-7.9,0-15.06-3.14-20.32-8.23c3.21,10.39,12.9,17.95,24.32,17.95
	c12.07,0,22.19-8.45,24.79-19.75h-6.74C1920.04,765.85,1912.16,769.74,1903.36,769.74z"/>
<path class="st14" d="M1907.36,441.28c-20.32,0-39.46,5.17-56.17,14.26c-10.03,5.45-19.18,12.32-27.19,20.33
	c-5.34,5.34-10.17,11.18-14.41,17.46c-4.24,6.28-7.9,12.98-10.88,20.03c-5.98,14.1-9.29,29.6-9.29,45.86
	c0,47.49,28.27,90.14,72,108.65c1.42,0.6,2.34,1.99,2.34,3.53v23.78c1.09-0.36,2.26-0.56,3.47-0.56h36.29v-34.41
	c-1.21,0.04-2.42,0.09-3.65,0.09c-56.49,0-102.45-47.44-102.45-105.76c0-58.31,45.96-105.76,102.45-105.76
	c56.49,0,102.45,47.44,102.45,105.76c0,20.39-5.62,39.44-15.34,55.61c-3.24,5.39-6.93,10.46-11.03,15.14
	c-4.1,4.69-8.6,9-13.43,12.87c-2.42,1.94-4.93,3.76-7.51,5.47c-10.34,6.84-21.94,11.82-34.36,14.47c-3.1,0.66-6.26,1.18-9.46,1.54
	v34.98h36.29c1.21,0,2.38,0.2,3.47,0.56V671.4c0-1.54,0.92-2.93,2.34-3.53c43.74-18.52,72-61.16,72-108.65
	C2025.3,494.18,1972.4,441.28,1907.36,441.28z"/>
<path class="st50" d="M1820.56,542.05c0-39.2,30.75-70.98,68.68-70.98c37.93,0,68.68,31.78,68.68,70.98c0,1.81-0.09,3.6-0.22,5.38
	c0.96,2.18,1.79,4.43,2.47,6.75c0.68,2.31,1.21,4.69,1.58,7.12h5.57v15.06h-15.48v-5.12c-7.81,17.85-22.53,31.75-40.65,38.07v42.61
	c2.94-0.36,5.83-0.87,8.67-1.5c19.93-4.45,37.54-15.39,50.66-30.57c7.5-8.67,13.53-18.73,17.69-29.76
	c2.08-5.51,3.69-11.26,4.78-17.21c1.09-5.94,1.67-12.07,1.67-18.34c0-54.08-42.52-98.09-94.79-98.09c-52.27,0-94.78,44-94.78,98.09
	c0,54.09,42.52,98.09,94.78,98.09c1.23,0,2.44-0.05,3.65-0.1v-41.06c-4.61,1.01-9.39,1.55-14.29,1.55
	C1851.31,613.04,1820.56,581.26,1820.56,542.05z"/>
<path class="st50" d="M1956.03,558.58c-0.21,0.91-0.44,1.82-0.69,2.72h1.22C1956.41,560.38,1956.23,559.48,1956.03,558.58z"/>
<path class="st14" d="M1884.11,569.58c0-12.82,10.43-23.26,23.25-23.26c12.82,0,23.26,10.43,23.26,23.26
	c0,11.52-8.42,21.08-19.43,22.92v16.81c18.12-6.32,32.84-20.22,40.65-38.07v-9.95h3.5c0.24-0.9,0.47-1.8,0.69-2.72
	c-1.12-4.94-2.97-9.61-5.44-13.88c-2.47-4.27-5.55-8.14-9.12-11.5c-3.57-3.35-7.64-6.19-12.08-8.38c-4.43-2.19-9.24-3.75-14.3-4.54
	v4.54h-15.48v-4.54c-21.15,3.31-37.93,19.94-41.47,41.01h4.37v15.06h-15.48V561.3h5.92c3.63-23.89,22.68-42.78,46.65-46.17v-5.37
	h15.48v5.37c14.32,2.03,26.88,9.58,35.45,20.44c2.85,3.62,5.27,7.6,7.15,11.87c0.13-1.78,0.22-3.57,0.22-5.38
	c0-39.2-30.75-70.98-68.68-70.98c-37.93,0-68.68,31.78-68.68,70.98c0,39.2,30.75,70.99,68.68,70.99c4.9,0,9.68-0.54,14.29-1.55
	V592.5C1892.53,590.66,1884.11,581.1,1884.11,569.58z"/>
<path class="st1" d="M1947.49,702.29h-80.25c-1.91,0-3.47,1.56-3.47,3.47v5.96v11.88c0,0.55,0.23,1.06,0.6,1.44
	c0.38,0.37,0.89,0.61,1.44,0.61h83.1c0.56,0,1.07-0.23,1.44-0.61c0.38-0.37,0.61-0.89,0.61-1.44v-11.88v-5.96
	C1950.96,703.85,1949.4,702.29,1947.49,702.29z"/>
<path class="st49" d="M1865.82,733.31c-0.7,0-1.39-0.07-2.05-0.22v15.48c0,1.91,1.56,3.47,3.47,3.47h80.25
	c1.91,0,3.47-1.56,3.47-3.47V733.1c-0.66,0.14-1.35,0.22-2.05,0.22H1865.82z"/>
<path class="st13" d="M1947.49,752.05h1.42c1.11,0,2.05-0.94,2.05-2.05v-1.42C1950.96,750.49,1949.4,752.05,1947.49,752.05z"/>
<path class="st13" d="M1863.77,748.58V750c0,1.11,0.94,2.05,2.05,2.05h1.42C1865.33,752.05,1863.77,750.49,1863.77,748.58z"/>
<path class="st13" d="M1907.36,433.61c-69.26,0-125.6,56.35-125.6,125.6c0,49.72,29.09,94.47,74.34,114.7v31.85v5.96v11.88v24.98
	V750c0,5.36,4.36,9.71,9.72,9.71h1.42h7.51c2.71,15.55,16.3,27.42,32.62,27.42c16.32,0,29.91-11.86,32.62-27.42h7.51h1.42
	c5.35,0,9.71-4.36,9.71-9.71v-1.42V723.6v-11.88v-5.96v-31.85c45.25-20.23,74.34-64.97,74.34-114.7
	C2032.97,489.96,1976.62,433.61,1907.36,433.61z M1907.36,779.46c-11.42,0-21.11-7.57-24.32-17.95c-0.19-0.59-0.33-1.19-0.46-1.8
	h42.84h6.74C1929.55,771.01,1919.43,779.46,1907.36,779.46z M1950.96,748.58V750c0,1.11-0.94,2.05-2.05,2.05h-1.42h-80.25h-1.42
	c-1.11,0-2.05-0.94-2.05-2.05v-1.42V733.1c0.66,0.14,1.35,0.22,2.05,0.22h83.1c0.7,0,1.39-0.07,2.05-0.22V748.58z M1950.96,711.72
	v11.88c0,0.55-0.23,1.06-0.61,1.44c-0.37,0.37-0.88,0.61-1.44,0.61h-83.1c-0.56,0-1.07-0.23-1.44-0.61c-0.37-0.37-0.6-0.89-0.6-1.44
	v-11.88v-5.96c0-1.91,1.56-3.47,3.47-3.47h80.25c1.91,0,3.47,1.56,3.47,3.47V711.72z M1953.3,667.87c-1.42,0.6-2.34,1.99-2.34,3.53
	v23.78c-1.09-0.36-2.26-0.56-3.47-0.56h-36.29h-7.67h-36.29c-1.21,0-2.38,0.2-3.47,0.56V671.4c0-1.54-0.92-2.93-2.34-3.53
	c-43.74-18.52-72-61.16-72-108.65c0-16.26,3.31-31.76,9.29-45.86c2.99-7.05,6.64-13.76,10.88-20.03
	c4.24-6.28,9.07-12.12,14.41-17.46c8.01-8.01,17.16-14.88,27.19-20.33c16.71-9.09,35.84-14.26,56.17-14.26
	c65.03,0,117.94,52.91,117.94,117.94C2025.3,606.7,1997.04,649.35,1953.3,667.87z"/>
<path class="st48" d="M1922.95,569.58c0-8.6-6.99-15.59-15.59-15.59s-15.59,6.99-15.59,15.59c0,8.6,6.99,15.59,15.59,15.59
	S1922.95,578.18,1922.95,569.58z"/>
<path class="st13" d="M1920.65,658.1c12.42-2.65,24.02-7.63,34.36-14.47c2.58-1.71,5.09-3.54,7.51-5.47
	c4.84-3.87,9.34-8.18,13.43-12.87c4.1-4.69,7.79-9.75,11.03-15.14c9.72-16.16,15.34-35.22,15.34-55.61
	c0-58.31-45.96-105.76-102.45-105.76c-56.49,0-102.45,47.44-102.45,105.76c0,58.32,45.96,105.76,102.45,105.76
	c1.23,0,2.44-0.05,3.65-0.09v34.41h7.67v-34.98C1914.39,659.28,1917.55,658.77,1920.65,658.1z M1903.53,611.49v41.06
	c-1.21,0.05-2.42,0.1-3.65,0.1c-52.27,0-94.78-44.01-94.78-98.09c0-54.08,42.52-98.09,94.78-98.09c52.27,0,94.79,44,94.79,98.09
	c0,6.27-0.57,12.4-1.67,18.34c-1.09,5.94-2.7,11.7-4.78,17.21c-4.16,11.03-10.19,21.08-17.69,29.76
	c-13.12,15.18-30.74,26.12-50.66,30.57c-2.84,0.63-5.74,1.14-8.67,1.5v-42.61V592.5c11-1.84,19.43-11.4,19.43-22.92
	c0-12.82-10.44-23.26-23.26-23.26c-12.82,0-23.25,10.43-23.25,23.26c0,11.52,8.42,21.08,19.42,22.92V611.49z M1907.36,585.17
	c-8.6,0-15.59-6.99-15.59-15.59c0-8.6,6.99-15.59,15.59-15.59s15.59,6.99,15.59,15.59C1922.95,578.18,1915.96,585.17,1907.36,585.17
	z"/>
<polygon class="st1" points="1850.21,573.29 1859.37,573.29 1859.37,564.37 1854.79,568.83 "/>
<polygon class="st51" points="1850.21,573.29 1854.79,568.83 1859.37,564.37 1850.21,564.37 "/>
<polygon class="st1" points="1964.16,564.37 1959.58,568.83 1955,573.29 1964.16,573.29 "/>
<polygon class="st51" points="1964.16,564.37 1955,564.37 1955,573.29 1959.58,568.83 "/>
<path class="st13" d="M1967.32,576.36V561.3h-5.57c-0.36-2.43-0.9-4.81-1.58-7.12c-0.68-2.31-1.5-4.57-2.47-6.75
	c-1.88-4.27-4.3-8.25-7.15-11.87c-8.57-10.85-21.13-18.41-35.45-20.44v-5.37h-15.48v5.37c-23.97,3.39-43.03,22.28-46.65,46.17h-5.92
	v15.06h15.48V561.3h-4.37c3.54-21.07,20.32-37.71,41.47-41.01v4.54h15.48v-4.54c5.06,0.79,9.87,2.34,14.3,4.54
	c4.44,2.19,8.5,5.03,12.08,8.38c3.57,3.36,6.65,7.23,9.12,11.5c2.46,4.27,4.31,8.94,5.44,13.88c0.2,0.9,0.38,1.8,0.53,2.72h-1.22
	h-3.5v9.95v5.12H1967.32z M1859.37,564.37v8.92h-9.16v-8.92H1859.37z M1911.94,521.74L1911.94,521.74l-9.16,0v0v-8.91h9.16V521.74z
	 M1955,564.37h9.16v8.92H1955V564.37z"/>
<polygon class="st1" points="1902.78,521.75 1911.94,521.75 1911.94,521.74 1911.94,512.83 1907.36,517.29 "/>
<polygon class="st51" points="1902.78,521.74 1902.78,521.75 1907.36,517.29 1911.94,512.83 1902.78,512.83 "/>
<path class="st14" d="M1907.36,410.46c2.17,0,3.94-1.77,3.94-3.94V356.4c0-2.17-1.77-3.94-3.94-3.94c-2.17,0-3.94,1.77-3.94,3.94
	v50.12C1903.42,408.69,1905.19,410.46,1907.36,410.46z"/>
<path class="st14" d="M1971,427.72l21.64-30.09c0.61-0.84,0.41-2.07-0.44-2.68l-1.11-0.35c-0.6,0-1.2,0.27-1.57,0.79l-21.65,30.09
	c-0.6,0.84-0.4,2.07,0.44,2.68C1969.17,428.76,1970.39,428.56,1971,427.72z"/>
<path class="st14" d="M1835.11,427.72c0.6,0.84,1.84,1.04,2.67,0.44c0.84-0.61,1.05-1.84,0.44-2.68l-21.65-30.09
	c-0.61-0.85-1.84-1.05-2.67-0.44c-0.84,0.61-1.05,1.84-0.44,2.68L1835.11,427.72z"/>
<path class="st14" d="M1748.31,463.48l31.62,19.35c0.58,0.36,1.16,0.29,1.45,0.22c0.29-0.07,0.83-0.27,1.19-0.86
	c0.36-0.58,0.29-1.16,0.22-1.45c-0.07-0.29-0.27-0.83-0.86-1.19l-31.61-19.35l-0.98-0.28l-0.47,0.05c-0.29,0.07-0.83,0.28-1.19,0.86
	v0c-0.35,0.58-0.29,1.16-0.22,1.45C1747.53,462.58,1747.73,463.12,1748.31,463.48z"/>
<path class="st14" d="M2031.61,484.42l31.62-19.35c0.89-0.54,1.18-1.75,0.64-2.64c-0.36-0.58-1-0.91-1.66-0.91l-0.98,0.27
	l-31.62,19.35c-0.58,0.36-0.79,0.9-0.86,1.19c-0.07,0.29-0.14,0.87,0.22,1.45C2029.52,484.67,2030.72,484.96,2031.61,484.42z"/>
<path class="st14" d="M1761.44,563.42c0-2.18-1.77-3.94-3.95-3.94h-50.11c-2.18,0-3.94,1.77-3.94,3.94c0,2.17,1.76,3.94,3.94,3.94
	h50.11C1759.67,567.36,1761.44,565.59,1761.44,563.42z"/>
<path class="st14" d="M2050.25,563.42c0,2.17,1.77,3.94,3.94,3.94h50.12c2.17,0,3.94-1.77,3.94-3.94c0-2.18-1.77-3.94-3.94-3.94
	h-50.12C2052.02,559.48,2050.25,561.24,2050.25,563.42z"/>
<path class="st13" d="M1907.36,418.13c6.4,0,11.61-5.21,11.61-11.61V356.4c0-6.4-5.21-11.61-11.61-11.61
	c-6.4,0-11.61,5.21-11.61,11.61v50.12C1895.75,412.92,1900.96,418.13,1907.36,418.13z M1903.42,356.4c0-2.17,1.77-3.94,3.94-3.94
	c2.17,0,3.94,1.77,3.94,3.94v50.12c0,2.17-1.77,3.94-3.94,3.94c-2.17,0-3.94-1.77-3.94-3.94V356.4z"/>
<path class="st13" d="M1963.85,434.38c1.69,1.21,3.64,1.8,5.58,1.8c2.98,0,5.92-1.38,7.79-3.98l21.64-30.09
	c3.08-4.29,2.11-10.29-2.18-13.38c-2.08-1.49-4.61-2.08-7.14-1.67c-2.53,0.41-4.74,1.78-6.24,3.86L1961.67,421
	C1958.58,425.29,1959.56,431.29,1963.85,434.38z M1967.89,425.48l21.65-30.09c0.37-0.51,0.96-0.79,1.57-0.79l1.11,0.35
	c0.84,0.61,1.05,1.84,0.44,2.68L1971,427.72c-0.61,0.84-1.84,1.04-2.67,0.44C1967.48,427.54,1967.28,426.32,1967.89,425.48z"/>
<path class="st13" d="M1828.88,432.19c1.87,2.6,4.81,3.98,7.8,3.98c1.94,0,3.89-0.59,5.58-1.8c4.29-3.09,5.27-9.09,2.18-13.38
	l-21.64-30.09c-3.09-4.29-9.09-5.27-13.38-2.18c-4.29,3.09-5.27,9.09-2.18,13.38L1828.88,432.19z M1813.9,394.95
	c0.84-0.61,2.06-0.41,2.67,0.44l21.65,30.09c0.6,0.84,0.4,2.07-0.44,2.68c-0.84,0.6-2.07,0.41-2.67-0.44l-21.65-30.09
	C1812.85,396.78,1813.06,395.56,1813.9,394.95z"/>
<path class="st13" d="M1744.31,470.02l31.61,19.35c1.52,0.93,3.24,1.41,4.98,1.41c0.75,0,1.51-0.09,2.27-0.27
	c2.49-0.6,4.6-2.13,5.93-4.31c1.33-2.18,1.74-4.75,1.14-7.25c-0.6-2.49-2.14-4.6-4.31-5.93l-31.62-19.35
	c-4.5-2.76-10.42-1.33-13.18,3.17c-1.33,2.18-1.74,4.75-1.14,7.24C1740.6,466.58,1742.13,468.68,1744.31,470.02z M1747.68,460.84
	L1747.68,460.84c0.36-0.58,0.9-0.79,1.19-0.86l0.47-0.05l0.98,0.28l31.61,19.35c0.58,0.36,0.78,0.9,0.86,1.19
	c0.07,0.29,0.14,0.87-0.22,1.45c-0.35,0.58-0.89,0.79-1.19,0.86c-0.29,0.07-0.87,0.14-1.45-0.22l-31.62-19.35
	c-0.58-0.36-0.78-0.9-0.85-1.19C1747.38,462,1747.32,461.42,1747.68,460.84z"/>
<path class="st13" d="M2030.63,492.37c1.7,0,3.43-0.46,4.99-1.41l31.61-19.35c4.5-2.76,5.93-8.67,3.17-13.18v0
	c-2.76-4.51-8.67-5.93-13.18-3.17l-31.62,19.35c-4.5,2.76-5.93,8.67-3.17,13.18C2024.24,490.74,2027.4,492.37,2030.63,492.37z
	 M2028.75,482.34c0.07-0.29,0.27-0.83,0.86-1.19l31.62-19.35l0.98-0.27c0.65,0,1.3,0.33,1.66,0.91c0.54,0.89,0.25,2.1-0.64,2.64
	l-31.62,19.35c-0.88,0.54-2.09,0.25-2.64-0.64C2028.62,483.2,2028.68,482.63,2028.75,482.34z"/>
<path class="st13" d="M1769.11,563.42c0-6.4-5.21-11.61-11.61-11.61h-50.11c-6.41,0-11.61,5.21-11.61,11.61
	c0,6.4,5.21,11.61,11.61,11.61h50.11C1763.9,575.03,1769.11,569.82,1769.11,563.42z M1703.44,563.42c0-2.18,1.76-3.94,3.94-3.94
	h50.11c2.18,0,3.95,1.77,3.95,3.94c0,2.17-1.77,3.94-3.95,3.94h-50.11C1705.2,567.36,1703.44,565.59,1703.44,563.42z"/>
<path class="st13" d="M2042.58,563.42c0,6.4,5.21,11.61,11.61,11.61h50.12c6.41,0,11.61-5.21,11.61-11.61
	c0-6.4-5.21-11.61-11.61-11.61h-50.12C2047.79,551.81,2042.58,557.02,2042.58,563.42z M2108.25,563.42c0,2.17-1.77,3.94-3.94,3.94
	h-50.12c-2.17,0-3.94-1.77-3.94-3.94c0-2.18,1.77-3.94,3.94-3.94h50.12C2106.48,559.48,2108.25,561.24,2108.25,563.42z"/>
<path class="st52" d="M1164.21,1452.52v19.47c4.33-0.88,8.86-1.5,13.54-1.83l-9.53-17.64H1164.21z"/>
<path class="st8" d="M1206.69,1471.99v-19.47h-38.47l9.53,17.64c2.53-0.18,5.09-0.28,7.7-0.28
	C1192.88,1469.88,1200.02,1470.63,1206.69,1471.99z"/>
<path class="st52" d="M1128.67,1500.14h113.56c-7.99-13.57-30.71-23.49-56.78-23.49S1136.66,1486.57,1128.67,1500.14z"/>
<path class="st52" d="M1021.26,1436.27h154.93c-0.11-0.58-0.17-1.18-0.17-1.8c0-5.2,4.23-9.43,9.43-9.43c5.2,0,9.43,4.23,9.43,9.43
	c0,0.62-0.07,1.21-0.17,1.8h174.99v-238.66c0-3.47-2.82-6.29-6.29-6.29h-351.83v235.27
	C1011.59,1431.92,1015.94,1436.27,1021.26,1436.27z M1011.86,1223.57c0-8.99,7.32-16.31,16.31-16.31h314.56
	c8.99,0,16.31,7.32,16.31,16.31v183.4c0,9-7.32,16.31-16.31,16.31h-314.56c-8.99,0-16.31-7.32-16.31-16.31V1223.57z"/>
<path class="st8" d="M1363.42,1445.75c3.47,0,6.29-2.82,6.29-6.29v-3.19h-174.99c-0.84,4.35-4.67,7.64-9.26,7.64
	c-4.59,0-8.42-3.29-9.26-7.64h-154.93c-5.32,0-9.67-4.35-9.67-9.67v-235.27h-3.3c-3.47,0-6.29,2.82-6.29,6.29v241.85
	c0,3.47,2.82,6.29,6.29,6.29H1363.42z"/>
<path class="st53" d="M1233.99,1296.1c56.89,0,104.08-35.07,113.03-81.04c-1.29-0.65-2.75-1.03-4.29-1.03h-221.95
	C1129.22,1260.5,1176.67,1296.1,1233.99,1296.1z"/>
<path class="st3" d="M1210.07,1375.95c62.07,0,115.82-28.29,142.2-69.58v-82.8c0-3.72-2.15-6.95-5.26-8.52
	c-8.95,45.97-56.14,81.04-113.03,81.04c-57.32,0-104.77-35.6-113.21-82.07h-64.25c-3.89,11.01-6,22.62-6,34.62
	C1050.53,1318.95,1121.96,1375.95,1210.07,1375.95z"/>
<path class="st54" d="M1190.24,1433.38c-0.5-2.19-2.45-3.83-4.79-3.83c-2.72,0-4.92,2.21-4.92,4.92c0,0.78,0.2,1.52,0.53,2.18
	c0.87,0.37,1.82,0.59,2.82,0.59C1186.65,1437.24,1189.04,1435.67,1190.24,1433.38z"/>
<path class="st55" d="M1183.88,1437.24c-1,0-1.96-0.22-2.82-0.59c0.81,1.62,2.46,2.75,4.4,2.75c2.71,0,4.92-2.21,4.92-4.92
	l-0.14-1.09C1189.04,1435.67,1186.65,1437.24,1183.88,1437.24z"/>
<path class="st56" d="M1028.17,1416.52h314.56c5.27,0,9.55-4.29,9.55-9.55v-100.6c-26.38,41.3-80.14,69.58-142.2,69.58
	c-88.11,0-159.54-57-159.54-127.31c0-12.01,2.1-23.61,6-34.62h-28.36c-5.26,0-9.54,4.29-9.54,9.55v183.4
	C1018.63,1412.24,1022.91,1416.52,1028.17,1416.52z"/>
<path class="st13" d="M1028.17,1423.29h314.56c8.99,0,16.31-7.32,16.31-16.31v-183.4c0-8.99-7.32-16.31-16.31-16.31h-314.56
	c-8.99,0-16.31,7.32-16.31,16.31v183.4C1011.86,1415.97,1019.18,1423.29,1028.17,1423.29z M1018.63,1223.57
	c0-5.26,4.28-9.55,9.54-9.55h28.36h64.25h221.95c1.54,0,3,0.38,4.29,1.03c3.12,1.57,5.26,4.8,5.26,8.52v82.8v100.6
	c0,5.26-4.28,9.55-9.55,9.55h-314.56c-5.26,0-9.54-4.29-9.54-9.55V1223.57z"/>
<path class="st13" d="M1185.45,1425.04c-5.21,0-9.43,4.23-9.43,9.43c0,0.62,0.06,1.21,0.17,1.8c0.84,4.35,4.67,7.64,9.26,7.64
	c4.59,0,8.42-3.29,9.26-7.64c0.11-0.58,0.17-1.18,0.17-1.8C1194.89,1429.27,1190.66,1425.04,1185.45,1425.04z M1185.45,1439.39
	c-1.93,0-3.59-1.13-4.4-2.75c-0.33-0.66-0.53-1.39-0.53-2.18c0-2.71,2.21-4.92,4.92-4.92c2.34,0,4.29,1.64,4.79,3.83l0.14,1.09
	C1190.38,1437.19,1188.17,1439.39,1185.45,1439.39z"/>
<path class="st8" d="M1105.52,1511v0.93c1.32,0.83,2.93,1.32,4.67,1.32h150.51c1.74,0,3.36-0.5,4.67-1.32V1511
	c0-2.26-1.84-4.1-4.1-4.1h-151.67C1107.36,1506.91,1105.52,1508.75,1105.52,1511z"/>
<path class="st57" d="M1110.19,1513.25c-1.74,0-3.36-0.5-4.67-1.32v0.46c0,2.26,1.84,4.1,4.1,4.1h151.67c2.26,0,4.1-1.84,4.1-4.1
	v-0.46c-1.32,0.83-2.93,1.32-4.67,1.32H1110.19z"/>
<path class="st13" d="M1157.44,1452.52v21.11c-17.72,5.02-31.2,14.66-36.33,26.51h-11.49c-5.99,0-10.86,4.88-10.86,10.86v1.39
	c0,5.99,4.87,10.87,10.86,10.87h151.67c5.99,0,10.87-4.88,10.87-10.87V1511c0-5.99-4.88-10.86-10.87-10.86h-11.49
	c-5.13-11.85-18.61-21.5-36.33-26.51v-21.11h149.96c7.2,0,13.06-5.86,13.06-13.06v-241.85c0-7.2-5.86-13.06-13.06-13.06h-355.13
	c-7.2,0-13.06,5.86-13.06,13.06v241.85c0,7.2,5.86,13.06,13.06,13.06H1157.44z M1261.28,1506.91c2.26,0,4.1,1.84,4.1,4.1v0.93v0.46
	c0,2.26-1.84,4.1-4.1,4.1h-151.67c-2.26,0-4.1-1.84-4.1-4.1v-0.46V1511c0-2.26,1.84-4.1,4.1-4.1H1261.28z M1242.23,1500.14h-113.56
	c7.99-13.57,30.71-23.49,56.78-23.49S1234.24,1486.57,1242.23,1500.14z M1164.21,1471.99v-19.47h4.01h38.47v19.47
	c-6.67-1.36-13.81-2.11-21.24-2.11c-2.61,0-5.18,0.1-7.7,0.28C1173.07,1470.49,1168.55,1471.11,1164.21,1471.99z M1002,1439.46
	v-241.85c0-3.47,2.82-6.29,6.29-6.29h3.3h351.83c3.47,0,6.29,2.82,6.29,6.29v238.66v3.19c0,3.47-2.82,6.29-6.29,6.29h-355.13
	C1004.82,1445.75,1002,1442.93,1002,1439.46z"/>
</svg>
